<?xml version="1.0" encoding="UTF-8"?>
<svg width="1200pt" height="1200pt" version="1.1" viewBox="0 0 1200 1200" xmlns="http://www.w3.org/2000/svg">
 <g>
  <path d="m723 173.64c196.08 104.64 259.92 324.96 177.84 461.04-82.078 136.08-211.92 216-408 121.92 0 0-61.922 54-144.72 1.0781 11.156 18.809 24.27 36.387 39.117 52.441l-10.441 13.922-13.922-10.441h0.003906c-1.2617 18.465-7.2109 36.309-17.277 51.84-21.961 29.039-54.359 24-77.039 53.762l-0.003906-0.003906c-14.383 19.078-17.496 44.383-8.1641 66.375 9.3281 21.996 29.684 37.344 53.398 40.262 23.715 2.918 47.184-7.0391 61.566-26.117 22.199-29.52 9.1211-60.719 30.48-88.922v0.003906c12.098-14.008 27.594-24.668 45-30.961l-13.922-10.441 8.2812-10.801v0.003906c62.344 38.215 134.38 57.668 207.48 56.039 65.617 0 130.07-17.273 186.9-50.082 56.828-32.805 104.02-79.992 136.82-136.82 32.809-56.824 50.082-121.28 50.082-186.9 0-182.4-135.24-340.08-303.48-367.2z"/>
  <path d="m995.16 948-498.36-590.04 165.72-139.8h-205.8l-283.2 238.92 85.68 101.52 159.6-134.76 498.48 590.4c5.8438 6.8867 14.18 11.172 23.18 11.914 9 0.74219 17.926-2.1172 24.82-7.9531l25.797-22.199c6.9023-5.8281 11.211-14.156 11.977-23.156 0.76562-9-2.0742-17.938-7.8945-24.844z"/>
 </g>
</svg>
