<?xml version="1.0" encoding="UTF-8"?>
<svg width="700pt" height="700pt" version="1.1" viewBox="0 0 700 700" xmlns="http://www.w3.org/2000/svg" xmlns:xlink="http://www.w3.org/1999/xlink">
 <defs>
  <symbol id="f" overflow="visible">
   <path d="m18.766-1.125c-0.96875 0.5-1.9805 0.875-3.0312 1.125-1.043 0.25781-2.1367 0.39062-3.2812 0.39062-3.3984 0-6.0898-0.94531-8.0781-2.8438-1.9922-1.9062-2.9844-4.4844-2.9844-7.7344 0-3.2578 0.99219-5.8359 2.9844-7.7344 1.9883-1.9062 4.6797-2.8594 8.0781-2.8594 1.1445 0 2.2383 0.13281 3.2812 0.39062 1.0508 0.25 2.0625 0.625 3.0312 1.125v4.2188c-0.98047-0.65625-1.9453-1.1406-2.8906-1.4531-0.94922-0.3125-1.9492-0.46875-3-0.46875-1.875 0-3.3516 0.60547-4.4219 1.8125-1.0742 1.1992-1.6094 2.8555-1.6094 4.9688 0 2.1055 0.53516 3.7617 1.6094 4.9688 1.0703 1.1992 2.5469 1.7969 4.4219 1.7969 1.0508 0 2.0508-0.14844 3-0.45312 0.94531-0.3125 1.9102-0.80078 2.8906-1.4688z"/>
  </symbol>
  <symbol id="d" overflow="visible">
   <path d="m13.734-11.141c-0.4375-0.19531-0.87109-0.34375-1.2969-0.4375-0.41797-0.10156-0.83984-0.15625-1.2656-0.15625-1.2617 0-2.2305 0.40625-2.9062 1.2188-0.67969 0.80469-1.0156 1.9531-1.0156 3.4531v7.0625h-4.8906v-15.312h4.8906v2.5156c0.625-1 1.3438-1.7266 2.1562-2.1875 0.82031-0.46875 1.8008-0.70312 2.9375-0.70312 0.16406 0 0.34375 0.011719 0.53125 0.03125 0.19531 0.011719 0.47656 0.039062 0.84375 0.078125z"/>
  </symbol>
  <symbol id="a" overflow="visible">
   <path d="m17.641-7.7031v1.4062h-11.453c0.125 1.1484 0.53906 2.0078 1.25 2.5781 0.70703 0.57422 1.7031 0.85938 2.9844 0.85938 1.0312 0 2.082-0.14844 3.1562-0.45312 1.082-0.3125 2.1914-0.77344 3.3281-1.3906v3.7656c-1.1562 0.4375-2.3125 0.76562-3.4688 0.98438-1.1562 0.22656-2.3125 0.34375-3.4688 0.34375-2.7734 0-4.9297-0.70312-6.4688-2.1094-1.5312-1.4062-2.2969-3.3789-2.2969-5.9219 0-2.5 0.75391-4.4609 2.2656-5.8906 1.5078-1.4375 3.582-2.1562 6.2188-2.1562 2.4062 0 4.332 0.73047 5.7812 2.1875 1.4453 1.4492 2.1719 3.3828 2.1719 5.7969zm-5.0312-1.625c0-0.92578-0.27344-1.6719-0.8125-2.2344-0.54297-0.57031-1.25-0.85938-2.125-0.85938-0.94922 0-1.7188 0.26562-2.3125 0.79688s-0.96484 1.2969-1.1094 2.2969z"/>
  </symbol>
  <symbol id="k" overflow="visible">
   <path d="m9.2188-6.8906c-1.0234 0-1.793 0.17188-2.3125 0.51562-0.51172 0.34375-0.76562 0.85547-0.76562 1.5312 0 0.625 0.20703 1.1172 0.625 1.4688 0.41406 0.34375 0.98828 0.51562 1.7188 0.51562 0.92578 0 1.7031-0.32812 2.3281-0.98438 0.63281-0.66406 0.95312-1.4922 0.95312-2.4844v-0.5625zm7.4688-1.8438v8.7344h-4.9219v-2.2656c-0.65625 0.92969-1.3984 1.6055-2.2188 2.0312-0.82422 0.41406-1.8242 0.625-3 0.625-1.5859 0-2.8711-0.45703-3.8594-1.375-0.99219-0.92578-1.4844-2.1289-1.4844-3.6094 0-1.7891 0.61328-3.1016 1.8438-3.9375 1.2383-0.84375 3.1797-1.2656 5.8281-1.2656h2.8906v-0.39062c0-0.76953-0.30859-1.332-0.92188-1.6875-0.61719-0.36328-1.5703-0.54688-2.8594-0.54688-1.0547 0-2.0312 0.10547-2.9375 0.3125-0.89844 0.21094-1.7305 0.52344-2.5 0.9375v-3.7344c1.0391-0.25 2.0859-0.44141 3.1406-0.57812 1.0625-0.13281 2.125-0.20312 3.1875-0.20312 2.7578 0 4.75 0.54688 5.9688 1.6406 1.2266 1.0859 1.8438 2.8555 1.8438 5.3125z"/>
  </symbol>
  <symbol id="c" overflow="visible">
   <path d="m7.7031-19.656v4.3438h5.0469v3.5h-5.0469v6.5c0 0.71094 0.14062 1.1875 0.42188 1.4375s0.83594 0.375 1.6719 0.375h2.5156v3.5h-4.1875c-1.9375 0-3.3125-0.39844-4.125-1.2031-0.80469-0.8125-1.2031-2.1797-1.2031-4.1094v-6.5h-2.4219v-3.5h2.4219v-4.3438z"/>
  </symbol>
  <symbol id="j" overflow="visible">
   <path d="m12.766-13.078v-8.2031h4.9219v21.281h-4.9219v-2.2188c-0.66797 0.90625-1.4062 1.5703-2.2188 1.9844s-1.7578 0.625-2.8281 0.625c-1.8867 0-3.4336-0.75-4.6406-2.25-1.2109-1.5-1.8125-3.4258-1.8125-5.7812 0-2.3633 0.60156-4.2969 1.8125-5.7969 1.207-1.5 2.7539-2.25 4.6406-2.25 1.0625 0 2 0.21484 2.8125 0.64062 0.82031 0.42969 1.5664 1.0859 2.2344 1.9688zm-3.2188 9.9219c1.0391 0 1.8359-0.37891 2.3906-1.1406 0.55078-0.76953 0.82812-1.8828 0.82812-3.3438 0-1.457-0.27734-2.5664-0.82812-3.3281-0.55469-0.76953-1.3516-1.1562-2.3906-1.1562-1.043 0-1.8398 0.38672-2.3906 1.1562-0.55469 0.76172-0.82812 1.8711-0.82812 3.3281 0 1.4609 0.27344 2.5742 0.82812 3.3438 0.55078 0.76172 1.3477 1.1406 2.3906 1.1406z"/>
  </symbol>
  <symbol id="i" overflow="visible">
   <path d="m10.5-3.1562c1.0508 0 1.8516-0.37891 2.4062-1.1406 0.55078-0.76953 0.82812-1.8828 0.82812-3.3438 0-1.457-0.27734-2.5664-0.82812-3.3281-0.55469-0.76953-1.3555-1.1562-2.4062-1.1562-1.0547 0-1.8594 0.38672-2.4219 1.1562-0.55469 0.77344-0.82812 1.8828-0.82812 3.3281 0 1.4492 0.27344 2.5586 0.82812 3.3281 0.5625 0.77344 1.3672 1.1562 2.4219 1.1562zm-3.25-9.9219c0.67578-0.88281 1.4219-1.5391 2.2344-1.9688 0.82031-0.42578 1.7656-0.64062 2.8281-0.64062 1.8945 0 3.4453 0.75 4.6562 2.25 1.207 1.5 1.8125 3.4336 1.8125 5.7969 0 2.3555-0.60547 4.2812-1.8125 5.7812-1.2109 1.5-2.7617 2.25-4.6562 2.25-1.0625 0-2.0078-0.21094-2.8281-0.625-0.8125-0.42578-1.5586-1.0859-2.2344-1.9844v2.2188h-4.8906v-21.281h4.8906z"/>
  </symbol>
  <symbol id="h" overflow="visible">
   <path d="m0.34375-15.312h4.8906l4.125 10.391 3.5-10.391h4.8906l-6.4375 16.766c-0.64844 1.6953-1.4023 2.8828-2.2656 3.5625-0.86719 0.6875-2 1.0312-3.4062 1.0312h-2.8438v-3.2188h1.5312c0.83203 0 1.4375-0.13672 1.8125-0.40625 0.38281-0.26172 0.67969-0.73047 0.89062-1.4062l0.14062-0.42188z"/>
  </symbol>
  <symbol id="g" overflow="visible">
   <path d="m2.3594-21.281h4.8906v21.281h-4.8906z"/>
  </symbol>
  <symbol id="b" overflow="visible">
   <path d="m9.6406-12.188c-1.0859 0-1.9141 0.39062-2.4844 1.1719-0.57422 0.78125-0.85938 1.9062-0.85938 3.375s0.28516 2.5938 0.85938 3.375c0.57031 0.77344 1.3984 1.1562 2.4844 1.1562 1.0625 0 1.875-0.38281 2.4375-1.1562 0.57031-0.78125 0.85938-1.9062 0.85938-3.375s-0.28906-2.5938-0.85938-3.375c-0.5625-0.78125-1.375-1.1719-2.4375-1.1719zm0-3.5c2.6328 0 4.6914 0.71484 6.1719 2.1406 1.4766 1.418 2.2188 3.3867 2.2188 5.9062 0 2.5117-0.74219 4.4805-2.2188 5.9062-1.4805 1.418-3.5391 2.125-6.1719 2.125-2.6484 0-4.7148-0.70703-6.2031-2.125-1.4922-1.4258-2.2344-3.3945-2.2344-5.9062 0-2.5195 0.74219-4.4883 2.2344-5.9062 1.4883-1.4258 3.5547-2.1406 6.2031-2.1406z"/>
  </symbol>
  <symbol id="e" overflow="visible">
   <path d="m14.719-14.828v3.9844c-0.65625-0.45703-1.3242-0.79688-2-1.0156-0.66797-0.21875-1.3594-0.32812-2.0781-0.32812-1.3672 0-2.4336 0.40234-3.2031 1.2031-0.76172 0.79297-1.1406 1.9062-1.1406 3.3438 0 1.4297 0.37891 2.543 1.1406 3.3438 0.76953 0.79297 1.8359 1.1875 3.2031 1.1875 0.75781 0 1.4844-0.10938 2.1719-0.32812 0.6875-0.22656 1.3203-0.56641 1.9062-1.0156v4c-0.76172 0.28125-1.5391 0.48828-2.3281 0.625-0.78125 0.14453-1.5742 0.21875-2.375 0.21875-2.7617 0-4.9219-0.70703-6.4844-2.125-1.5547-1.4141-2.3281-3.3828-2.3281-5.9062 0-2.5312 0.77344-4.5039 2.3281-5.9219 1.5625-1.4141 3.7227-2.125 6.4844-2.125 0.80078 0 1.5938 0.074219 2.375 0.21875 0.78125 0.13672 1.5547 0.35156 2.3281 0.64062z"/>
  </symbol>
  <symbol id="w" overflow="visible">
   <path d="m2.3594-21.281h4.8906v11.594l5.625-5.625h5.6875l-7.4688 7.0312 8.0625 8.2812h-5.9375l-5.9688-6.3906v6.3906h-4.8906z"/>
  </symbol>
  <symbol id="v" overflow="visible">
   <path d="m0.98438-15.312h4.7656l2.5625 10.547 2.5781-10.547h4.0938l2.5781 10.438 2.5781-10.438h4.75l-4.0312 15.312h-5.3438l-2.5781-10.531-2.5781 10.531h-5.3438z"/>
  </symbol>
  <symbol id="u" overflow="visible">
   <path d="m2.3594-15.312h4.8906v15.312h-4.8906zm0-5.9688h4.8906v4h-4.8906z"/>
  </symbol>
  <symbol id="t" overflow="visible">
   <path d="m14.312-14.828v3.7188c-1.043-0.4375-2.0547-0.76562-3.0312-0.98438-0.98047-0.21875-1.9023-0.32812-2.7656-0.32812-0.92969 0-1.6211 0.11719-2.0781 0.34375-0.44922 0.23047-0.67188 0.58984-0.67188 1.0781 0 0.38672 0.17188 0.68359 0.51562 0.89062 0.34375 0.21094 0.95703 0.36719 1.8438 0.46875l0.85938 0.125c2.5078 0.32422 4.1953 0.85156 5.0625 1.5781 0.86328 0.73047 1.2969 1.8711 1.2969 3.4219 0 1.6367-0.60547 2.8672-1.8125 3.6875-1.1992 0.8125-2.9922 1.2188-5.375 1.2188-1.0234 0-2.0742-0.078125-3.1562-0.23438-1.0742-0.15625-2.1797-0.39453-3.3125-0.71875v-3.7188c0.96875 0.48047 1.9609 0.83984 2.9844 1.0781 1.0312 0.23047 2.0781 0.34375 3.1406 0.34375 0.95703 0 1.6758-0.12891 2.1562-0.39062 0.47656-0.26953 0.71875-0.66406 0.71875-1.1875 0-0.4375-0.16797-0.75781-0.5-0.96875-0.33594-0.21875-0.99609-0.38281-1.9844-0.5l-0.85938-0.10938c-2.1797-0.26953-3.7031-0.77344-4.5781-1.5156-0.875-0.73828-1.3125-1.8594-1.3125-3.3594 0-1.625 0.55078-2.8281 1.6562-3.6094 1.1133-0.78906 2.8203-1.1875 5.125-1.1875 0.89453 0 1.8359 0.074219 2.8281 0.21875 1 0.13672 2.082 0.35156 3.25 0.64062z"/>
  </symbol>
  <symbol id="s" overflow="visible">
   <path d="m12.422-21.281v3.2188h-2.7031c-0.6875 0-1.1719 0.125-1.4531 0.375-0.27344 0.25-0.40625 0.6875-0.40625 1.3125v1.0625h4.1875v3.5h-4.1875v11.812h-4.8906v-11.812h-2.4375v-3.5h2.4375v-1.0625c0-1.6641 0.46094-2.8984 1.3906-3.7031 0.92578-0.80078 2.3672-1.2031 4.3281-1.2031z"/>
  </symbol>
  <symbol id="r" overflow="visible">
   <path d="m16.547-12.766c0.61328-0.94531 1.3477-1.6719 2.2031-2.1719 0.85156-0.5 1.7891-0.75 2.8125-0.75 1.7578 0 3.0977 0.54688 4.0156 1.6406 0.92578 1.0859 1.3906 2.6562 1.3906 4.7188v9.3281h-4.9219v-7.9844-0.35938c0.007813-0.13281 0.015625-0.32031 0.015625-0.5625 0-1.082-0.16406-1.8633-0.48438-2.3438-0.3125-0.48828-0.82422-0.73438-1.5312-0.73438-0.92969 0-1.6484 0.38672-2.1562 1.1562-0.51172 0.76172-0.77344 1.8672-0.78125 3.3125v7.5156h-4.9219v-7.9844c0-1.6953-0.14844-2.7852-0.4375-3.2656-0.29297-0.48828-0.8125-0.73438-1.5625-0.73438-0.9375 0-1.6641 0.38672-2.1719 1.1562-0.51172 0.76172-0.76562 1.8594-0.76562 3.2969v7.5312h-4.9219v-15.312h4.9219v2.2344c0.60156-0.86328 1.2891-1.5156 2.0625-1.9531 0.78125-0.4375 1.6406-0.65625 2.5781-0.65625 1.0625 0 2 0.25781 2.8125 0.76562 0.8125 0.51172 1.4258 1.2305 1.8438 2.1562z"/>
  </symbol>
  <symbol id="q" overflow="visible">
   <path d="m17.75-9.3281v9.3281h-4.9219v-7.1094c0-1.3438-0.03125-2.2656-0.09375-2.7656s-0.16797-0.86719-0.3125-1.1094c-0.1875-0.3125-0.44922-0.55469-0.78125-0.73438-0.32422-0.17578-0.69531-0.26562-1.1094-0.26562-1.0234 0-1.8242 0.39844-2.4062 1.1875-0.58594 0.78125-0.875 1.8711-0.875 3.2656v7.5312h-4.8906v-21.281h4.8906v8.2031c0.73828-0.88281 1.5195-1.5391 2.3438-1.9688 0.83203-0.42578 1.75-0.64062 2.75-0.64062 1.7695 0 3.1133 0.54688 4.0312 1.6406 0.91406 1.0859 1.375 2.6562 1.375 4.7188z"/>
  </symbol>
  <symbol id="p" overflow="visible">
   <path d="m2.5781-20.406h5.875l7.4219 14v-14h4.9844v20.406h-5.875l-7.4219-14v14h-4.9844z"/>
  </symbol>
  <symbol id="o" overflow="visible">
   <path d="m2.1875-5.9688v-9.3438h4.9219v1.5312c0 0.83594-0.007813 1.875-0.015625 3.125-0.011719 1.25-0.015625 2.0859-0.015625 2.5 0 1.2422 0.03125 2.1328 0.09375 2.6719 0.070313 0.54297 0.17969 0.93359 0.32812 1.1719 0.20703 0.32422 0.47266 0.57422 0.79688 0.75 0.32031 0.16797 0.69141 0.25 1.1094 0.25 1.0195 0 1.8203-0.39062 2.4062-1.1719 0.58203-0.78125 0.875-1.8672 0.875-3.2656v-7.5625h4.8906v15.312h-4.8906v-2.2188c-0.74219 0.89844-1.5234 1.5586-2.3438 1.9844-0.82422 0.41406-1.7344 0.625-2.7344 0.625-1.7617 0-3.1055-0.53906-4.0312-1.625-0.92969-1.082-1.3906-2.6602-1.3906-4.7344z"/>
  </symbol>
  <symbol id="n" overflow="visible">
   <path d="m17.75-9.3281v9.3281h-4.9219v-7.1406c0-1.3203-0.03125-2.2344-0.09375-2.7344s-0.16797-0.86719-0.3125-1.1094c-0.1875-0.3125-0.44922-0.55469-0.78125-0.73438-0.32422-0.17578-0.69531-0.26562-1.1094-0.26562-1.0234 0-1.8242 0.39844-2.4062 1.1875-0.58594 0.78125-0.875 1.8711-0.875 3.2656v7.5312h-4.8906v-15.312h4.8906v2.2344c0.73828-0.88281 1.5195-1.5391 2.3438-1.9688 0.83203-0.42578 1.75-0.64062 2.75-0.64062 1.7695 0 3.1133 0.54688 4.0312 1.6406 0.91406 1.0859 1.375 2.6562 1.375 4.7188z"/>
  </symbol>
  <symbol id="m" overflow="visible">
   <path d="m2.5781-20.406h8.7344c2.5938 0 4.582 0.57812 5.9688 1.7344 1.3945 1.1484 2.0938 2.7891 2.0938 4.9219 0 2.1367-0.69922 3.7812-2.0938 4.9375-1.3867 1.1562-3.375 1.7344-5.9688 1.7344h-3.4844v7.0781h-5.25zm5.25 3.8125v5.7031h2.9219c1.0195 0 1.8047-0.25 2.3594-0.75 0.5625-0.5 0.84375-1.2031 0.84375-2.1094 0-0.91406-0.28125-1.6172-0.84375-2.1094-0.55469-0.48828-1.3398-0.73438-2.3594-0.73438z"/>
  </symbol>
  <symbol id="l" overflow="visible">
   <path d="m2.3594-15.312h4.8906v15.031c0 2.0508-0.49609 3.6172-1.4844 4.7031-0.98047 1.082-2.4062 1.625-4.2812 1.625h-2.4219v-3.2188h0.85938c0.92578 0 1.5625-0.21094 1.9062-0.625 0.35156-0.41797 0.53125-1.2461 0.53125-2.4844zm0-5.9688h4.8906v4h-4.8906z"/>
  </symbol>
 </defs>
 <g>
  <path d="m480.46 203.38c-0.20312 0.25391-0.42188 0.50391-0.56641 0.75 0.25391-0.17188 0.5-0.34766 0.73828-0.51953-0.039063-0.042969-0.074219-0.089844-0.10547-0.12891zm-89.059 186.87c3.9414-1.6562 2.9102 2.082 2.9102 2.918 0 0.82422 1.8633 0 3.3281-0.20703 1.4492-0.20703 2.0703-0.82812 2.2773 0 0.19141 0.75-1.1523 1.8359-3.2539 2.6562 2.7422-0.25391 7.1445 1.1484 7.6172 0.050781 0.62109-1.457 4.5703 0.62109 9.1445-2.2852 4.5703-2.918 1.457-2.4922-0.82813-8.7305-2.2852-27.637 26.594-38.438 31.375-40.102 3.2969-1.1484 5.2539-2.2969 5.2969-3.5117-1.1914 0.4375-2.3633 0.91406-3.5039 1.4492-2.2617 0.97266-4.3047 2.4062-6.9336 3.3555-2.4297 0.89453-4.832 1.6953-7.3203 2.4375-0.75781 0.20703-1.5273 0.42578-2.3203 0.63672-7.5078 5.0078-15.668 14.738-17.426 30.75-1.25-3.7422-0.62109-17.656 11.43-28.258-0.73828 0.30078-1.4727 0.64844-2.1953 1.0312-0.75781 0.56641-1.4844 0.95703-2.2188 1.3789-0.15234 0.085938-0.30859 0.14062-0.45312 0.21875-6.6758 4.6484-12.387 13.625-15.922 31.449 0.20703-13.094 4.9883-24.102 9.1445-28.465 0 0-12.828 6.2148-16.738 25.891-0.33984 1.9414-0.64844 4.0195-0.91797 6.3164 0.18359-2.2617 0.52734-4.3359 0.91797-6.3164 2.6758-15.359 7.3984-20.367 11.523-24.961l-0.84375 0.09375c-7.5938 4.2852-18.969 12.996-17.41 29.73 0.82422 1.6445-0.63281 4.1328 3.3203 2.4727zm13.805-300.56c0.074218 0.050781 0.13281 0.10547 0.20312 0.15234 1.4883 0.29687 3.3086 0.32031 5.4609-0.37109-0.48828 1.4219-0.89453 2.9961-0.96484 4.582 0.042969 0.09375 0.089844 0.19141 0.11719 0.27344 0.16406 0.4375 0.24609 0.85156 0.30859 1.25 0.074218 0.72656 0.074218 1.3281 0.054687 1.8633 0.67578 1.8555 2.1289 3.5898 4.8398 4.9453 6.5625 3.2812 4.375 4.375 5.4727 7s13.562 2.8438 14.219 7.4375-0.86719 9.8438-3.9375 6.5625c-3.0625-3.2812-3.9375-10.719-9.625-10.938-3.1094-0.11719-6.0469-1.9414-8.1797-3.9219 0.011718 0.81641-0.16406 1.7461-0.57031 2.5039-0.4375 0.83203-1.0078 1.457-1.5703 1.9297-1.2109 0.99219-1.9766 1.3711-2.8945 2.0273-0.18359 0.12891-0.39062 0.23438-0.57812 0.36328-1.8125 1.7812-3.5859 4.5625-5.0352 5.8398-1.1094 0.96875-4.5859 0.80078-7.9336 0.70703-0.054687 0.011719-0.09375 0.023437-0.14453 0.027344-0.57812 0.074219-1.1992 0.125-1.7422 0.15234l-3.2891 0.13281c-0.24609 0.003906-0.49219 0.027344-0.73828 0.039063-3.7812 1.0039-9.5703 4.8828-13.066 8.9922-3.7188 4.375-4.8086 7.6562-8.5273 12.473-1.6797 2.1797-3.6016 4.2188-5.8086 6.2422-0.09375 0.18359-0.15625 0.375-0.28125 0.55469-0.87891 1.3281-1.9336 2.043-2.7773 2.7266-0.81641 0.69531-2.1406 1.4883-3.1797 1.9141-0.054688 0.023438-0.10547 0.039063-0.15625 0.066407-0.99219 0.74609-2.0117 1.5-3.1094 2.2734-1.5273 1.0859-2.6328 2.4453-3.4648 3.9492l-0.050781 0.41016c-0.58203 4.3438-1.1016 8.5352-1.4844 12.836-0.15625 2.1211-0.42578 4.4805-0.96875 6.7656-0.25781 1.1406-0.59766 2.2969-0.90234 3.3047-0.32031 1.0312-0.46875 1.7539-0.53125 2.4922-0.050781 0.75 0.039062 1.6367 0.20703 2.5859l0.28125 1.6445c0.085938 0.63281 0.15625 1.2656 0.19531 1.8555 0.19141 2.4023 0.015625 4.7227-0.11328 6.7969-0.12891 2.0938-0.10156 4.0195 0.22266 5.9648l0.23438 1.6562c0.078125 0.60938 0.13281 1.2031 0.16797 1.7812 0.074219 1.1602 0.089844 2.3008 0.085938 3.4102-0.011719 2.2109-0.13281 4.2773 0.039062 6.3164 0.11328 2.0625 0.63281 3.9922 1.043 6.2734 0.11328 0.63672 0.18359 1.2695 0.27344 1.9102 0.71094 2.1836 1.2656 3.7812 1.2656 3.7812s2.625 1.0938 5.2539-2.625c2.6211-3.7188 10.281-6.125 13.125-8.5352 2.8438-2.4062 11.156-2.1914 13.125-2.1914 1.9727 0 3.2812-1.9727 4.3789-4.1562 1.0859-2.1914-1.0977-6.7812-2.4141-8.3164-1.3086-1.5273-6.7812-1.7461-8.0938-5.2539-1.3086-3.5-6.125-6.5625-6.125-6.5625l2.1914-1.0938s2.625-2.625 4.1562-0.21875c1.5273 2.4062 9.4062 8.9727 12.473 12.473 3.0625 3.5 7.2188 7 11.809 3.9414 4.5938-3.0625 7.6602-6.7812 11.379-15.098 0.65625 14-10.723 18.598-18.379 21.223 7.2227 3.5 16.191-0.875 19.695-4.375 3.5-3.5 5.6914-11.379 5.2539-16.191-0.4375-4.8086-2.4062-16.844-6.3438-22.754 3.7188 0.65625 6.3438 5.0273 6.3438 5.0273s6.5625-3.7188 7.4375-6.7812 2.4062-7.875 5.6914-14.656c3.2812-6.7812 1.5352-9.8438-7.875-15.754 8.5273 0 12.906 5.4727 14.875 9.625 1.9766 4.1562-2.4062 4.5977-3.2812 7.2227-0.86719 2.625-0.65625 7.875-1.3086 10.938-0.65625 3.0625-6.125 6.3438-7.875 9.625-1.7539 3.2812-1.0938 10.5-0.21875 15.527 0.875 5.0273 0.4375 11.809-1.3086 15.316-1.7539 3.5-10.719 6.5625-14.879 8.5273-1.9648 0.92969-5.1914 1.9102-7.7578 2.6602l2.3633 0.71094c3.5898 1.1719 7.2578 2.5273 10.625 4.457 1.875 1.0547 3.7695 2.0391 5.6719 2.9297 2.9062 0.23438 6.1641-0.26172 9.0039-0.26172 2.5039 0 7.7344-0.32031 12.719-0.11719 0.66797-0.29297 1.3711-0.58203 2.1562-0.82422 1.0625-0.32422 2.4805-0.55859 3.875-0.20703 1.3711 0.33984 2.4023 1.0078 3.2422 1.625 1.5508 1.1875 2.5586 2.168 3.7031 2.7656 2.7227 0.67188 4.1836-1.1602 5.3711-3.0195 1.5273-2.4062 6.125-12.691 8.5273-15.754 2.4023-3.0625 9.8438-11.16 10.719-14s-1.0938-7.2188-5.6914-16.406c-4.5938-9.1914-10.062-6.3438-12.691-12.254-2.625-5.9062-2.1914-9.4062-2.4062-10.281-0.22266-0.87891-3.5-3.7188-5.4727-5.6914-1.9727-1.9727-4.8086-4.3789-5.9062-7.8789-1.0977-3.5-2.625-10.062-5.4727-11.809-2.8516-1.7539-5.0352-4.8086-3.2812-7.2188 1.7461-2.4062 3.2812-3.7227 6.5625-7.6602s12.473-1.5273 12.473-1.5273-0.875-0.875 0.65625-4.8086c1.5273-3.9375 5.4727-5.9062 5.4727-5.9062s5.2539 0.65625 3.9375 2.8438c-1.3164 2.1914-7.4375 3.9375-7.4375 3.9375s0.4375 3.9375 5.9062 5.4727c5.4727 1.5352 8.7539 7.2188 8.7539 7.2188l-9.4062-4.1562s-5.9062 0.21875-8.3086-0.4375c-2.4023-0.65625-9.4062-1.5273-10.719 0-1.3086 1.5273-1.3086 3.5-0.22266 5.0352 1.0938 1.5273 3.2891 3.5 4.1602 7.2188 0.875 3.7188 0 7 0 8.9727 0 1.9727 1.7539 1.7539 5.2539 1.3086 3.5-0.44141 7.6562-4.375 13.344-8.5273 5.6914-4.1602 8.9727-7.2188 8.9727-7.2188s-1.5273 6.5625-5.0273 9.8438-12.254 7-15.094 7-3.9375 1.3086-3.9375 2.8438c0 1.5352 3.5 3.7188 5.6914 5.6914s1.9727 6.125 1.9727 8.3164c0 2.1914 2.4062 4.1562 3.2812 5.2539 0.875 1.0977 5.9062 5.6914 8.5273 10.062 2.6211 4.375 7 10.941 8.9727 5.4727 1.9727-5.4727 2.4062-13.562 2.8516-19.473 0.42969-5.9062 0.42969-11.156 5.2539-14.66 4.8086-3.5 8.9648-4.5938 8.0938-10.281-0.875-5.6914-6.7812-6.3438-11.816-8.9727-5.0273-2.625-4.5938-2.625-3.7188-4.5938 0.875-1.9648 0.65625-1.9727 3.5039-12.254 4.1484 3.5 2.1836 11.375 2.1836 13.125 0 1.7539 2.1914 2.8438 3.9414 2.4062 1.7539-0.4375 6.3438-0.875 10.5 0.65625 4.1562 1.5273 5.6914 5.9062 5.6914 5.9062s-0.4375 1.0938-1.9727 2.625c-1.5273 1.5273-2.8438 2.8438-0.875 4.1562 1.9727 1.3086-1.0938 2.625-2.1914 5.2539-1.0977 2.625-1.0938 4.1602-0.875 6.5625 0.21875 2.4062 4.1562 7.2227 6.125 16.191-3.0625-4.1562-5.9062-6.7812-7.6562-11.594-1.7539-4.8164-4.5977-6.3438-6.3438-4.8086-1.7539 1.5273-5.4766 10.281-6.5625 17.062-1.0977 6.7812-2.4141 12.254-3.7227 19.254-1.1367 6.0703-0.95703 9.168 0.68359 8.3164 1.2031-1.5078 2.4375-2.9922 3.7344-4.457 1.1914-1.3203 2.4531-2.5938 3.8398-3.8477 1.4219-1.2891 3.0078-2.3516 4.4414-3.3164 2.7227-1.7852 5.5039-3.3672 8.3047-4.9219 2.6445-2.4531 5.9023-5.0234 9.4961-7.7109 1.625-2.0273 3.2188-4.1055 4.7148-6.2266 1.9414-2.7734 3.6562-5.4805 4.4453-8.5 0.87891-2.8438-0.10156-6.0703-0.92969-9.4062l-2.3359-8.4102c-0.015625-0.015625-0.085938-0.085937-0.085938-0.085937s-4.5938-4.5938-6.3438-7.6562c-1.7539-3.0625-7.6602-5.4727-16.195-13.562-8.5352-8.0938-20.562-15.098-23.191-15.098-2.625 0-3.2812 0-7.875-3.2812s-16.195-4.1562-29.754-11.156c-9.375-4.8398-30.648-7.5898-43.496-8.8242 2.3984 2.0234 5.0898 3.7852 7.6367 5.668 1.75 1.2656 3.5234 2.5156 5.2656 3.8203zm-23.457 103.04c8.9766-9.4062 6.125-16.191-0.21094-18.598-6.3516-2.4023-15.316-1.9648-17.941 2.1914s-8.7539 10.062-8.7539 10.062c2.8438-10.281 13.344-19.473 16.406-20.781 1.3086 3.5 5.0273 7 9.6328 3.7188 4.5938-3.2812 10.5-5.0273 10.5-5.0273-4.375 5.6914-6.5625 7.4414-6.5625 7.4414 2.8398 2.3945 15.09 11.367-3.0703 20.992zm20.348-30.625c-1.0938 1.3086-0.65625 8.0938 0 8.5273-4.1562-4.1562-3.2812-9.4062-6.125-12.691-2.8438-3.2812-6.7891-10.062-8.3086-13.344-0.98047-2.0938-1.7812-6.2383-3.2578-9.418-1.0195-0.95703-2.1289-2.25-3.3086-3.9258 1.4297 0.63281 2.4688 2.1211 3.3086 3.9258 2.5703 2.418 4.4727 2.4297 4.7812-0.86328 0.19141 5.4766 0.71875 8.0039 5.3555 3.2461 0.86328-1.0312 1.7656-1.9883 2.5273-2.8125-0.96484 1.1367-1.7852 2.0547-2.5273 2.8125-2.1172 2.5195-3.9688 5.4805-2.7266 8.125 1.7539 3.7188 7.0039 13.562 9.6328 13.781 2.625 0.21875 11.594 2.4062 14.219 0-4.3867 4.6016-12.477 1.3203-13.57 2.6367zm9.6211-23.625c-3.2812-3.2812 0.4375-6.5625-1.5273-10.281-1.9727-3.7227-3.7188-6.7812-3.7188-6.7812s9.8438 7.8789 9.8438 11.16-1.3164 9.1836-4.5977 5.9023zm27.57 35c11.375 9.1914 9.8438 11.598 4.5938 17.281 8.3086-1.5273 18.156 0.65625 27.125 6.7812-7-2.625-22.973-4.375-26.906-3.7188 0 0-0.65625 8.0977-1.3086 12.473-0.65625 4.375-0.21875 10.281 1.7539 16.844-3.0625-2.625-12.914-10.719-9.6328-10.5 3.2891 0.21875 5.2539-1.5273 6.125-10.281 0.57812-5.7305-4.5547-8.5391-8.1758-9.8047-1.9922-0.38672-3.4141-0.91797-3.4141-0.91797s1.5078 0.24609 3.4141 0.91797c2.7812 0.53125 6.6875 0.77734 9.4883-1.1367 4.8086-3.2773 2.4062-10.934-3.0625-17.938zm-3.9531-73.727c1.9531 1.043 5.207 2.8672 5.207 4.4297 0 1.1641 1.6641 2.8281 2.5039 3.6055 0.16797 0.14453 0.34766 0.29297 0.48828 0.42578 0 0-0.19531-0.16406-0.48828-0.42578-3.9023-3.3945-13.699-9.7227-13.699-9.7227 0 0.003906 4.0391 0.64844 5.9883 1.6875zm5.4805 351.13-1.5234-4.5938c-0.35156-1.0625-0.19141-1.7656 0.24609-2.2305-1.9805 0.015624-3.8789-0.11328-4.7148-0.60547-2.0781-1.25-8.3086-3.9492-10.801-5.1953-2.4922-1.25-5.6094-1.043-9.3516-3.3281-3.7422-2.2852-4.1562-6.8594-6.0273-8.1016-1.8711-1.2422-5.8203-0.82812-7.6875 1.043-1.8633 1.8711-1.8711-0.20703-3.9492-2.9102-2.0703-2.6992 0.21094-10.18 0.21094-11.844 0-1.6641 0.82812-3.5352 0.82812-5.6094 0-2.0781 1.2422-6.6484 1.4492-4.1562 0.20703 2.4922 2.2852 1.043 5.1953-0.82812 1.4727-0.94141 2.9922-1.0938 4.5117-1.3008l0.8125-0.48047c0 0.11719 0.035157 0.23047 0.039063 0.34766 1.2031-0.20703 2.4062-0.55469 3.5781-1.4727 2.9102-2.2852 4.1562-3.7344 2.9102-5.4023-1.25-1.6641-7.0664 2.7031-8.7305 2.7031-1.6641 0-4.5703 2.9062-9.1406 1.2422-3.6953-1.3398-4.9453 7.7578-5.293 11.301-0.050781 0.95312-0.11328 1.3789-0.11328 1.3789s0.027344-0.53906 0.11328-1.3789c0.050782-0.82812 0.10156-2.0664 0.10156-3.8203 0-3.7344-0.20703-6.8594 1.25-9.1406 0.050781-0.085938 0.125-0.14062 0.19141-0.21094-1.8867 0.77344-3.1992 1.7461-3.7227 3.3281-0.62109 1.8711-3.9492 4.9883-3.5352 1.457 0.41406-3.5352 3.7422-8.5195 1.8711-7.2695-1.8711 1.2422-2.9102 1.043-3.3281 3.5352-0.41406 2.4883 0 5.4023-1.6641 4.1484-1.6641-1.25-3.1211 0-3.1211-3.5352 0-3.5352 1.043-7.4805-0.62109-4.3555-1.6641 3.1211-3.5352 4.7773-3.3281 0.82422 0.20703-3.9531-0.62109-2.9062 1.6641-5.8125s3.5352-2.9102 3.3281-4.3633c-0.20703-1.4492-1.8711-2.4922-2.2852-4.5703-0.41406-2.0781-2.2852-7.0625-3.1211-8.3047-0.82812-1.2539-0.41406-3.5352-1.8711-4.5703-0.85547-0.61719-2.5156-2.9062-3.7305-4.6719-0.55469-0.74609-1.0547-1.5234-1.4688-2.1914 0 0 0.63281 0.97266 1.4688 2.1914 2.2305 2.9961 5.5156 5.4609 9.3398-2.1914 0 4.5703-2.6992 8.9336-2.6992 8.9336s3.5352-3.7344 7.4805-6.6484c-2.2852 2.6953-5.4023 10.383-4.3633 13.5 1.043 3.1211 2.4922 6.0273 3.9492 7.0664 1.457 1.043 2.0781 3.3281 2.9102 4.9883-3.4375-7.0859-2.9062-18.891 9.9805-28.711-0.58203 0.11328-1.1797 0.19531-1.7422 0.33594-0.48828 0.11719-1.2656 0.33594-2.0391 0.45312-0.35156 0.0625-0.69531 0.078126-1.043 0.11719-1.7031 2.4531-7.6719 2.3203-10.566 15.754-0.63281-1.9023 3.2188-10.961 7.207-15.59-0.58203 0.003907-1.1914 0.042969-1.7656 0.027344-2.6328-0.066406-5.2031-0.25391-7.6758-0.42969-1.2539-0.085938-2.3906-0.19141-3.3867-0.10156-2.1055 0.054688-3.2656-0.39844-4.4414-0.58203-2.2227-0.46094-4.082-0.37109-6.1367 0.28516l-2.5547 0.96484c0.039063 0.10547 0.066407 0.16406 0.11328 0.28125 0.91797 2.4297 7.8867 5.3242 7.3359 11.742-0.54688 6.418 3.3047 8.2617-0.54688 9.9102-3.8516 1.6523-8.2539 1.0977-7.707-1.6523 0.55469-2.75 4.7773-5.1406 3.668-8.8047-0.66797-2.2305-2.4805-8.3711-3.2305-11.336l-0.59375 0.22266c-1.2617 0.44141-2.5469 0.8125-3.7422 1.1523-2.457 0.63281-3.9023 1.3438-6.0273 3.0234-1.668 1.1914-3.4375 1.8555-5.1133 2.3984-5.6055 3.7617-17.242 9.3086-17.242 9.3086s2.1914-2.2461 4.9883-4.5234c-1.4766 0.35938-2.8945 0.67188-4.1836 1.25-2.1836 0.92578-3.9883 2.6562-5.4375 4.6914l-0.23047-0.12891s1.0938 3.9375 5.6914 9.8516c4.5938 5.9062 20.781 18.156 26.473 20.125 5.6914 1.9727 10.062 2.625 13.125 4.1602 3.0625 1.5273 19.691 24.062 25.816 27.125s6.7812 5.0273 10.93 11.156c4.1602 6.125 22.102 21.219 27.57 26.473 5.4727 5.2539 19.914 4.3789 23.852 3.2891 3.9375-1.0977 6.125-2.6328 4.5938-5.9141-1.5156-3.2773-23.195-23.219-23.195-23.219zm-105.41-71.242c7.1523 0 8.2617-3.3047 10.277-0.91797 2.0156 2.3906 2.5664 2.3867 3.1211 3.8516 0.55469 1.4688 1.6523 4.0391 1.6523 4.0391s-1.0977-8.4375-1.0977-9.1719c0-0.73828 2.0117-5.5039 6.0547-7.3398 1.7188-0.78516-3.3047 1.2812-4.0391 5.1367-0.73828 3.8516-1.1016 7.3398 0.54688 11.008 1.6523 3.668 4.957 7.3359 4.957 8.6172s-1.1016 1.4688-1.8359 1.2812c-0.73438-0.18359-7.8867-3.8516-7.8867-3.8516s0-0.17969 0.36328-2.9336c0.36328-2.75 0.18359-4.2188-1.0977-5.3125-1.2812-1.1016-1.4688-1.6523-2.9336-1.6523-1.4688 0-1.0977 0.91406-4.0391 0.91406-2.9375 0-11.199-3.668-4.043-3.668zm39.809 11.371c-0.36328 3.1211 0 3.8516-2.3867 6.2344-2.3867 2.3789-6.6016 7.8906-9.5352 7.8906s-11.188-3.8516-16.695-6.418c-5.5-2.5703-9.9062-6.6094-13.203-10.641-3.2969-4.0312-6.2383-10.824-6.2383-10.824s7.1562 11.742 13.211 15.961c6.0547 4.2227 21.461 11.008 23.477 10.09 2.0156-0.91406 8.2617-6.6016 8.4375-9.5352 0.18359-2.9336 1.8359-15.043 7.5273-9.5352 1.6211 1.5703-4.2305 3.6602-4.5938 6.7773zm24.766 46.605c-1.1016-1.6523-6.418-7.1523-10.09-12.285-3.668-5.1406-8.625-13.027-8.625-13.027s14.125 17.977 15.965 20.363c1.832 2.3906 4.0312 1.6562 5.1367 4.043 1.0977 2.3711-1.2891 2.5508-2.3867 0.90625zm44.941 36.32c-2.3867-2.0117-26.234-22.379-28.984-24.395-2.7539-2.0156-1.1016 0.91797 0.18359 2.9336 1.2812 2.0156 5.1367 5.8672 5.1367 5.8672s-7.707-3.8516-9.1719-7.707c-1.4727-3.8516-3.3086-10.27 0.54688-9.1719l35.223 33.57c0.007813 0.003906-0.54688 0.91797-2.9336-1.0977zm-6.7891-14.855c-4.957-5.1367-4.7695-3.8516-7.8867-6.6016-3.125-2.75-5.875-5.1406-6.2383-7.8906s-4.4023-5.1367-4.4023-5.1367l6.2344 1.4688c3.6719 2.3867 11.195 4.043 12.293 8.4453 1.0977 4.4023-5.1367 2.75-0.55469 6.2344 4.5859 3.4844 20.367 18.895 20.367 18.895 0.003906-0.003907-14.859-10.281-19.812-15.414zm-230.2-116.64c1.0352-0.86719 1.7344-2.1094 1.9336-3.4062 0.16406-0.75-0.011719-1.7734 0.16797-2.7734 0.14063-0.98047 0.35156-1.9023 0.59375-2.8242 0.96875-3.6641 2.1836-7.2031 3.4844-10.711l2.8711-7.582c-0.93359-6.0273-2.3203-9.6328-10.902-6.2383 6.7461-6.5078 20.238-18.078 21.684-24.574 1.4453-6.5078-9.8789-4.582-9.8789-4.582s5.7773-2.8906 9.3984-6.0195c3.6133-3.1367 6.9883-14.219 4.3359-29.395-2.6562-15.176-1.4453-21.203-0.24219-34.691 1.2031-13.492-11.324-12.527-7.2305-15.176 4.0938-2.6484 15.418 5.7773 12.77 13.492-2.6484 7.7109-0.96484 14.695-0.72266 21.684 0.24219 6.9883 4.3359 7.2305 9.1562-3.1367 4.8203-10.367 5.7852-29.395 6.5078-40.719 0.72266-11.324-12.527-14.699-19.035-14.699 12.773-4.3359 18.555 0 20.719 3.1367 2.168 3.1289 2.8906 27.227-1.9258 44.57s-8.9141 40.719-10.602 48.184c-1.6875 7.4688-2.8906 11.805 5.0586 10.848 5.668-0.6875 13.41-4.8047 19.402-8.7695 0.25781-0.23047 0.54297-0.44922 0.78516-0.68359 0.54688-0.52734 1.0742-1.1914 1.3672-1.6289 0.0625-0.066406 0.18359-0.29688 0.29688-0.5l0.15234-0.26953c0.10547-0.18359 0.21875-0.39062 0.33203-0.54297 0.45313-0.66797 0.94141-1.1602 1.4062-1.5664 1.3984-1.1758 2.7656-1.9141 4.1172-2.5586 0.68359-3.125-3.2578-5.4023-7.6094-4.6758-5.7773 0.96484-5.7773-5.7852 0-8.4336 5.7852-2.6484 6.9883-6.2656 12.285-13.25 5.3047-6.9883 6.7461-9.1562 13.25-14.699 6.5-5.543 8.9141-5.7852 6.5078-14.219-2.4062-8.4336-3.6133-14.453 5.3047-20.48 8.9141-6.0273 13.008-9.1562 14.695-23.129 1.6562-13.754 15.449-23.98 24.613-23.379-2.7266-1.9883-4.2617-4.4531-6.0352-6.7891-3.0625-4.0156-5.3555-3.0586-8.418-1.9102-3.0586 1.1484-8.6016 0.76172-12.234 3.4375-3.6328 2.6758-21.027 10.898-12.039 29.059-6.8828 1.9102-16.246 7.6445-21.219 8.2227-4.9727 0.57812-13.766-6.3047-19.309-2.6758s-7.6484 5.9258-7.6484 5.9258c5.3555-6.6914 10.512-8.793 7.8398-13.188-2.6758-4.3945-13.766-16.062-18.738-17.395-4.9688-1.3398-6.1133-0.19141-8.6016-3.8242-7.8398 0.19141-15.102-4.5938-17.59-6.8828-3.2539 1.1484-6.5-0.19141-11.855 5.3555 4.9727-6.8828 5.1562-14.145 0.37891-13.957 0.95703-2.4883 3.8242-1.3398 4.9727-4.0156-0.37891 3.6289 1.5273 9.1719 4.7773 6.3047 3.2539-2.8672 7.2695-10.703 12.047-12.609-3.2461 3.8242-10.32 11.082-7.0742 15.863 3.2461 4.7812 9.5586 7.2617 13.188 6.8828-6.2617-6.0742-0.45312-16.57 5.957-20.238 0.36328-4.2852-1.4961-7.1719-8.8242-4.4258 3.8242-5.1562 10.898-7.8359 12.617-9.75-0.37891 5.1562 0.19141 9.1797 13.188 5.1562-3.625 2.8633-9.5352 2.3008-16.973 9.5195-3.1914 4.2852-7.168 13.07-2.9102 20.875 2.6758 4.0078 5.7344 2.6758 8.2227 0.76172 2.4883-1.9102 11.848-9.3672 9.5586-18.543 3.0586 2.4883 2.2891 5.3555 12.617 3.8242-9.9414 2.4883-18.352 9.9414-16.062 16.246 2.2969 6.3047 13.383 19.879 17.969 24.277 4.5859 4.3945 20.262 0.95703 23.129-0.76562 2.8672-1.7188 3.8242-4.9727 3.8242-4.9727s-1.1484-10.703 2.1016-15.863c3.2539-5.1562 9.5586-10.328 15.102-11.664-1.3398-4.5859-0.19531-10.707 3.4375-14.914 3.6328-4.207 8.4102-10.898 8.6016-13.188 0.19141-2.2891-0.76562-6.5-6.8828-6.6914 12.434-0.19531 15.293-8.4102 27.535-8.2227-10.328 2.6758-20.074 9.3633-17.012 13.188 4.9688-1.3398 6.1133-1.1484 6.1133-1.1484s-7.6445 3.6289-12.047 10.32c-4.3945 6.6914-5.1562 14.145-5.543 18.93 1.3398 2.2969 8.2227 0 10.137-1.5273 1.9102-1.5273 4.207-8.9805 9.9414-10.898 5.7305-1.9102 17.586-17.203 44.348-16.055 0 0-0.37891-7.2617-0.57812-8.793-0.19531-1.5273-4.5859-5.9258-10.703-5.543 5.3477-4.5859 12.039-3.2539 17.012 1.7188 4.9727 4.9688 9.3672 0.95703 14.34 9.1797-5.168-4.0156-14.914-4.207-16.637-1.7266-1.7266 2.4883 1.7266 7.2617 7.8398 7.4609-13.004-0.19141-29.059-0.19141-45.121 9.3633-16.055 9.5586-9.1797 23.703 1.5273 29.629-3.6562-0.69922-6.1953-1.8477-8.1406-3.2266-23.781 7.7344-22.844 22.109-23.082 32.898-0.24219 10.84-14.934 14.699-16.863 18.312-1.9258 3.6172 0.95703 17.59 0.95703 22.645 0 5.0586-8.9141 8.9141-11.805 12.527s-17.832 21.441-18.555 23.129c-0.72266 1.6875-1.9258 7.9531 3.8516 10.121 0.44141 0.16406 0.91406 0.29297 1.3945 0.40234l6.8086-2.6836c3.4766-1.3203 6.9258-2.6484 10.328-4.0586 0.80078-0.33203 1.5859-0.6875 2.375-1.0312 2.832-3.7852-6.6875-5.1641-6.6875-5.1641s7.2305-1.4453 10.602-1.9258c1.5273-0.21875 5.4258 1.0977 9.4414 2.7812 2.4414 0.023437 4.8438 0.51562 7.0273 1.3281 1.9102 0.69922 3.7109 1.625 5.3945 2.7344 0.84375 0.57031 1.6172 1.1641 2.4375 1.8945 0.64844 0.61719 1.1016 1.0117 1.6445 1.3711 2.082 0 4.4141-0.54297 6.5859-1.9141 0.53906-0.33984 1.1211-0.77734 1.7266-1.2891 2.2969-2.5273 4.4961-5.2578 6.6211-8.0117 0.64844-0.84375 1.2812-1.6797 1.8984-2.5195 0.75-1.3672 1.3008-2.6641 1.5859-3.7969-0.60938-3.0117-1.3164-5.9883-2.1406-8.9023-1.0742-1.9375-2.3008-3.6641-3.1797-4.8711-1.418-1.9492-0.5-7.1289-0.10156-11.469-0.054688-0.55469-0.10156-1.1211-0.17969-1.6562-0.078124-0.50781-0.16406-0.98438-0.26172-1.4492l-0.34766-1.5391c-0.5-2.1289-0.66797-4.3398-0.69531-6.4297-0.41016-1.7539-0.85547-4.1289-1.3047-7.8125-0.81641-6.6484 0.55859-10.457 2.0547-14.074 0.27344-1.4727 0.48828-2.9727 0.70703-4.6133 0.44922-3.5234 1.0312-7.0742 1.6289-10.562-0.30078-4.8984-0.65625-9.9023 1.1484-12.672 0.94531 1.6875 1.9492 2.4766 3.0078 2.9102 2.3398-1.4453 4.5312-1.8711 6.3555-2.5195 0.98438-0.33984 1.5742-0.60547 2.4883-1.2227 0.90625-0.56641 1.7148-1.082 2.082-1.5391 0.79688-0.80469 0.72266-2.9805 0.47656-5.1406-0.13281-1.332 0.16406-2.7227 0.72656-3.875 0.57812-1.1523 1.3555-2.1055 2.1914-2.918 1.6797-1.6172 3.5781-2.8125 5.1641-4.1367 0.40234-0.33984 0.72656-0.63672 1.0039-1.0078 0.3125-0.47656 0.77734-0.98047 1.1914-1.3477 0.16406-0.15625 0.34766-0.28125 0.51562-0.42578 0.23438-0.32031 0.4375-0.63281 0.58203-0.94141 1.4492-3.1289-13.973-10.84-16.621-9.6367 5.875-2.1328 16.219 1.9141 18.188 4.1055 1.9727 2.1914 3.2812 0.875 6.5625-0.22266 0.33594-0.11328 0.66797-0.19141 1.0039-0.26953 0.089843-0.085937 0.18359-0.15625 0.26953-0.24219 1.0195-0.99609 2.207-1.3594 3.2891-1.7344 2.207-0.69922 4.3945-1.043 6.5625-1.3906 2.0898-0.37891 4.4844-0.52734 5.875-1.2773 1.7344-0.81641 3.4883-2.043 5.2266-3.2305l5.2695-3.6836c0.83594-0.60547 1.9727-1.3047 2.418-1.7148 0.55859-0.55469 0.58203-0.59766 0.59766-0.94531 0.023438-0.42188-0.29297-1.3555-0.6875-2.3086-0.40234-1.0078-0.83594-1.9492-1.2422-3.2305-0.875-2.4648-0.32031-5.5703-0.32422-6.9102-0.0625-0.57031-0.039063-0.51953-0.94531-1.4336-0.74609-0.71094-1.5469-1.4375-2.3516-2.1562-1.6133-1.4297-3.2305-2.8906-4.8203-4.3867-1.6133-1.4727-3.1602-3.0312-4.6758-4.6211-0.99609-1.0859-2.0234-2.168-2.918-3.3711-4.8164-0.44141-8.1367-0.64453-8.6406-0.64453-1.8203 0-11.297-1.0938-16.027 1.8203-4.7305 2.9102-9.4688 3.2773-12.746 0.36328-3.2773-2.9102-12.387 0.36328-14.934 1.457s-7.2852-0.36328-9.4688-0.36328c-2.1836 0-11.297-2.5469-15.301-2.1836-4.0078 0.36328-9.832-0.72656-12.387 1.8203-2.5469 2.5547-12.746 4.375-17.484 3.2812-4.7383-1.0938-18.574 4.3672-21.129 13.109 0 0-20.766-1.0938-24.039 0.72656-3.2773 1.8203-15.301 3.2773-18.938 6.5586-3.6406 3.2773-21.129 7.6484-25.867 11.66-4.7305 4.0039-6.1875 2.1836-8.7422 2.1836-2.5469 0-11.66 3.2773-15.301 6.5586-3.6445 3.2773-15.664 8.7422-18.211 10.199-2.5469 1.457-8.7422 6.1875-9.1055 8.7422-0.36328 2.5469-3.2812 8.0117-8.0117 11.66-4.7383 3.6445-5.8281 14.57-5.8281 14.57s-8.7461 2.1836-10.203 5.0977c-1.457 2.918-14.57 11.66-12.383 21.492-2.5742 5.8555-9.8555 12.777-7.3086 18.609 2.5469 5.8281 1.8203 6.5586 0.72656 8.7422s2.5469 5.4648 1.457 12.746c-1.0898 7.2891-2.5469 16.031 1.0938 19.309 3.6406 3.2773 1.0938 5.1016 0.72656 7.2852-0.36328 2.1914 0.72656 7.2852 2.5547 10.566 1.8203 3.2773 3.6406 9.832 4.0039 11.652 0.36328 1.8242 6.9219 6.9141 12.746 12.746 5.8242 5.8281 16.754 22.227 30.598 27.688 10.926 13.113 20.035 12.383 24.406 12.746 4.375 0.36328 31.328 1.0938 31.328 1.0938-0.003906-0.003906-0.085937 0.43359-0.23438 1.1328zm70.418-147.73c0 6.2656 1.6875 10.121 11.562 10.84-8.9141-0.48047-11.805-0.72266-6.9883 6.9883-6.7461-5.5391-9.3984-10.359-9.3984-16.867 0-6.5-0.72266-7.2305-8.9141-14.695 4.3398 2.1719 13.738 7.4766 13.738 13.734zm47.496 43.531c-2.625 4.2656-4.9219 0.98438-3.9375-2.9531 0.98438-3.9414 3.6133-3.6133 1.6406-6.8945-1.9727-3.2812-4.9219-6.8867-8.8594-7.875-3.9375-0.98437-6.2344 0.65625-6.2344-5.5781 5.5781 2.2969 11.809 9.5156 12.473 1.9727 0.66016-7.543 0.65625-7.875 3.9375-10.5 2.2969-1.8359-2.9531 14.766-0.98438 18.047 1.9648 3.2812 3.2812 5.5781 3.2812 6.5625s7.8789-5.9062 7.8789-5.9062c-4.2656 5.8984-6.5625 8.8555-9.1953 13.125zm-31.164-148.82c3.0352-0.17188 5.668-1.4961 11.621-4.5742-4.5742 6.7461-1.6875 7.7109 3.3711 8.9141-3.3711 0-11.082 3.375-11.082 3.375s1.9258-1.4453 1.4453-4.8164c-0.32422-2.2812-3.3945-2.7969-5.3555-2.8984-0.52734 0.035156-1.0586 0.039063-1.6289 0 0 0.003906 0.6875-0.046875 1.6289 0zm-0.1875 27.23c6.0273-7.7109 15.656-8.9141 21.684-16.867-2.168 6.9883-10.359 11.324-14.453 14.934-4.0938 3.6133-5.7852 5.5391-7.2305 12.527s-13.25 19.996-18.789 22.406c6.5-10.121 19.75-24.812 1.4453-21.441 10.359-4.5742 11.32-3.8438 17.344-11.559zm-24.68-10.004c5.9258 0 10.512 9.1797 10.512 9.1797-7.0703-6.8867-16.434-9.1797-10.512-9.1797zm-24.949 68.789c-19.516 1.6875-29.637 2.8906-38.543 14.934-8.9141 12.047-6.7461 18.555-5.543 23.852 1.2031 5.3047 3.8516 7.9531 3.6172 11.805-0.24219 3.8516-4.3359-0.72266-4.3359-0.72266s-0.72266-6.9883-4.3359-4.5742-1.9258-1.2031-0.96484-4.3359c0.96484-3.1289-0.72266-12.047-7.9453-12.047-7.2227 0-15.656 1.2031-15.656 1.2031s11.082-5.5391 10.121-14.211c-0.96484-8.6758-8.6758-11.562-12.047-10.84-3.3711 0.72266-9.1562 0.48047-9.1562 0.48047s5.0586-6.2656 5.0586-11.805c0-5.543-4.5742-9.1562-4.5742-9.1562s6.2656 2.168 10.84-3.375c4.5742-5.5391 8.9141-8.4297 13.73-8.6758 4.8164-0.24219 8.1914-0.23438 12.285-3.3711-3.6172 5.2969-12.77 7.4688-16.145 9.6367-3.3711 2.168-10.121 5.543-10.84 10.359-0.72266 4.8164-0.96484 9.8789 2.6484 11.805 3.6133 1.9258 11.562 8.6758 12.047 17.109 0.48047 8.4336 9.3984 11.082 10.84 8.4336 1.4453-2.6562 5.0586-12.77 11.805-18.793 6.7344-6.0273 15.891-10.117 37.094-7.7109zm-29.395-16.867c-1.4453-5.3047-2.1719-16.625 3.6133-22.406-2.6484 6.0273-2.4062 7.4648-2.6484 14.453-0.24219 6.9883 2.8906 7.9453 4.3359 7.2305-3.6133 3.6172-6.0273 3.8594-6.7461 6.5078-4.5742-4.0938-8.9141-6.2656-12.285-2.1719s-10.359 12.051-9.1562 16.867c1.2031 4.8164 0.72266 9.3984 0.72266 9.3984s-2.168-11.082-3.6172-16.379c-1.4492-5.2969-6.5078-6.5078-8.4336-10.121 5.7852 6.5078 10.121 9.1562 13.492 4.8203 3.375-4.3359 4.3359-9.8789 8.4336-11.082 4.0977-1.2109 13.734 8.1875 12.289 2.8828zm-37.223-26.875c4.0156-5.9258 9.9414-6.6914 11.277-8.9805 0 0 21.41-10.707 32.117-11.66-17.398 7.6445-31.539 18.543-35.746 21.797-4.207 3.2461-15.676 9.75-19.879 12.617-4.207 2.8672-9.3672 1.9102-9.3672 1.9102s2.8672-2.2969 6.6914-6.3047c3.8164-4.0312 10.891-3.4531 14.906-9.3789zm-31.242 16.25c1.6055-2.1055 8.8711-8.6016 15.18-10.707 0 0-12.395 7.0742-15.18 15.863-2.4375 2.6758-1.6094-3.0547 0-5.1562zm-3.8633 7.5781c3.8398-0.58984 7.3789 9.7422 7.3789 12.5 0 2.7617 7.3867 7.2852 8.2695 9.6484-9.7422-6.5-11.809-1.7695-11.781-5.6094 0.023437-3.8398-2.0938-6.2031-9.0938-8.2695-6.9922-2.0703 1.3828-7.6797 5.2266-8.2695zm-2.0078 51.734c-2.3086-8.6523-1.7734-22.691 14.113-23.656-4.4961 2.5-14.879 11.535-14.113 23.656zm-13.938-30.773c5.8633-4.2344 10.098-5.5781 13.945-8.4609-0.38672 2.8828-6.7305 6.5352-10.965 10-4.2344 3.4648-13.074 10.191-16.922 19.617-0.57812-8.6523 8.0742-16.922 13.941-21.156zm-15.773 27.691c1.0586 3.4648 6.6406 4.4258 8.1758 4.2344 1.5352-0.19141 2.6875 7.1172 1.3438 11.543-0.57812-6.3438-2.0039-9.6133-4.4648-9.6133-2.457-0.003906-5.7344-2.5117-5.0547-6.1641zm-6.2461 32.957c0 4.7422-4.0391 14.738 5 25.316-6.9258-1.5391-10.387-11.598-5-25.316zm2.6875 1.8516c0.57812 3.8477 9.2305 9.4258 15.77 6.7305-1.3438-5.3867-0.12891-11.93 6.2812-16.348 6.4102-4.4258 5.2578-11.344 4.2969-17.5-0.96484-6.1562-9.0234-12.273-11.156-12.695-2.457-0.47656-3.0742-0.19141-3.8477 2.5039-0.77344 2.6875-2.1172 1.9219-2.1172 1.9219s0.96484-9.8047 5.957-15.578c1.7305 4.2266 11.922 19.812 18.082 24.23-2.8828-0.19141-3.1758 4.8086-3.2266 8.0742-0.042968 3.2695 3.0312 4.6133 6.1094 3.4609 3.0742-1.1523 7.3086-0.76563 7.8867 2.6953s-2.8008 6.9219-6.0156 4.4258c-3.2148-2.5039-8.1484-4.8086-11.355-1.3477-3.2031 3.4609-11.312 9.2305-7.3516 18.844 3.9531 9.6133 15.211 9.7109 12.953 26.953 0.62109 4.5859 5.9453 9.0117 11.84 14.582-8.5234-5.3828-13.145-10.762-18.531-9.6094 0-2.1172 4.3242-1.3711 5.5781-6.6523 1.2539-5.2812-7.3086-18.156-18.273-22.578-4.4844 4.4844-4.6758 12.652 0.72266 19.02 1.1406 1.1523 2.4297 2.3398 3.8906 3.5625-1.5352-1.0859-2.8164-2.2891-3.8906-3.5625-8.4688-8.5273-8.6172-15.121-7.2578-19.02 1.543-4.418-6.3438-3.4531-6.3438-12.113zm35.387 74.617c-1.9219-1.1523-0.19141-6.7305 1.5391-10.191 1.7305-3.457-2.1172-4.2266-5.1914-5.3828-3.0742-1.1523-5 3.6562-12.5 0 6.3438 0.37891 9.6133-7.5 1.9219-12.5-2.6875-1.5391-21.348 3.8125-16.922-11.844 2.3086 9.3477 5 7.4219 10.77 7.9961 5.7695 0.57812 10.578 1.3477 13.074 7.1172 2.5039 5.7695 2.6953 4.4258 5.9648 7.3086 3.2695 2.8906 6.3438 5.5781 9.8047 4.6133 3.4609-0.96484 10.965 1.1523 12.695 6.5391-6.3438-4.2344-16.922-10.383-21.156 6.3438zm27.699-50.188c-5.3828-3.2695-10.965 4.2266-12.887 12.887-1.9219 8.6523 7.5 17.305 14.812 22.883-23.852-8.8477-20.961-27.883-14.426-35.293 6.5352-7.4023 2.3086-7.2109-6.5352-8.7539-8.8477-1.5352-15.965-7.1172-16.156-11.73 4.6211 4.0391 7.8867 5.7695 14.617 8.2695 6.7305 2.4961 10.383-0.96484 8.2695-4.8086-2.1094-3.8477-1.7305-18.273 5.7695-18.273-8.4609 13.273-1.7305 23.273 5 27.113 6.7266 3.8594 6.918 10.973 1.5352 7.707zm-0.39062-40.199c-2.4961-4.4258-13.652-14.617-17.879-14.617s-8.6562-1.7344-5.9648-6.3438c2.6953-4.6133 5.9648 1.5352 8.5352 3.6523 0 0 6.2773 4.2266 12.426 8.8477 6.1562 4.6133 9.4258 13.652 10.77 18.652 1.3477 5 8.6523 10.578 14.812 13.652 6.1562 3.0781 21.926 8.0742 25 16.824-4.8047-5.293-22.113-16.824-24.422-12.977-2.3086 3.8477 7.1172 14.617 19.996 22.77-22.309-9.543-24.035-16.426-23.656-20.848 0.38672-4.4258-3.4609-6.3438-9.8047-11.922-6.3477-5.5703-7.3125-13.266-9.8125-17.691zm17.945 81.172s5.875 12.035 15.859 16.152c-14.102 1.4609-35.238-14.391-15.859-16.152zm265.62 35.129c2.1445 0.14453 5.1914-0.51953 9.4688-2.2109-3.1836 0.57031-6.3555 1.3281-9.4688 2.2109zm-92.746-196.52c0.19141 0.90234 0.42578 2.0703 0.50781 3.207 0.34766-0.69922-0.18359-1.4492-0.18359-4.9727 0-0.35938 0.027344-0.71875 0.074218-1.0586-0.41406 0.94141-0.60156 1.8984-0.39844 2.8242zm-30.547 228.77c2.3242-1.4336 4.9102-2.0625 6.9609-3.1094 0.52734-0.26172 1.0039-0.54688 1.4492-0.86328 0.46094-0.32031 1.0625-0.77734 1.625-1.1133 1.1367-0.73437 2.3594-1.3555 3.5625-1.8867 2.4375-1.0547 4.6328-1.9258 6.1992-3.2188 0.81641-0.69531 2.0312-1.793 3.2773-2.5039 1.2773-0.78516 2.6641-1.3008 3.8711-1.7266 0.90234-0.3125 1.7266-0.61719 2.5469-0.93359 0.99609-5.6719-10.625-6.4609-13.238-8.7539-2.832-2.4766-10.617 1.7656-15.223 6.0156-4.6016 4.25-24.074 3.8906-28.676 2.832-4.6016-1.0586-8.1406 1.0586-12.035 10.617-3.8906 9.5586-19.824 19.113-26.195 19.113 0 0 10.977-8.8477 13.098-10.617 2.1211-1.7695 12.035-16.645 15.223-19.117 3.1875-2.4766 10.617-3.5391 15.578-3.5391 4.957 0 20.184-1.7695 25.492-4.6016 5.3086-2.8281 6.7266-4.5977 2.832-11.324 3.8906 0.70703 7.0781 5.6602 12.035 8.1406 4.3047 2.1523 9.6758 4.3125 15.883 9.2461 2.6367-1.0117 5.8203-1.1992 8.4336-0.6875 1.3086 0.23047 2.6328 0.47656 3.0703 0.41016 1.5195-0.16406 2.918-0.0625 4.1836-0.015625 5.0781 0.28125 10.062 0.89453 14.332-0.085937 2.7031-0.55469 5.3125-0.77344 7.8672-0.96875l3.7422-0.28125c1.3203-0.09375 1.8047-0.23047 3.1914-0.67188 2.3633-0.72266 4.6914-1.5234 6.8047-2.457 1.0078-0.44141 2.0898-1.0859 2.4414-1.457 0.035157 0.078125 0.35156-0.76172 1.0859-1.6055 0.32422-0.42188 1.1992-1.0625 2.0156-1.1641 0.78516-0.11719 1.1797-0.023437 1.5078 0 1.9805 0.33984 4.4531-0.21875 6.8828-0.64453 2.4297-0.48047 4.8906-1.0547 7.2812-1.6914 2.2188-0.57031 4.5039-1.8594 6.9609-2.7031 1.0625-0.37891 2.1406-0.72266 3.2148-1.0547-2.6953-1.8711-4.5625-5.1914-6.6406-8.5195s-9.5586 0.41406-9.5586 0.41406c2.9102-4.5703 9.9727-7.0625 11.844-3.3203 1.8555 3.7109 5.3438 8.8477 7.4258 10.551 0.36328-0.10156 0.73438-0.20703 1.0977-0.30078 4.9453-1.2305 9.8906-2.3477 14.945-3.1484 1.2773-0.17188 2.5273-0.39844 3.9023-0.42578 0.91406 0.027344 0.92578 0.050781 1.4844-0.17969 0.46094-0.20313 0.95703-0.51563 1.4219-0.86719 0.79688-0.59766 1.5664-1.2891 2.3594-1.9883-0.88672 0.26172-1.457 0.47656-1.457 0.47656l2.4062-3.375s-3.6172-5.0586-5.0586-5.7773c-1.4375-0.72266-5.7852-4.3359-7.2305-5.0586-1.4453-0.72266-6.9844-1.4453-8.1875-3.375-1.2109-1.9258-5.3047-1.6875-6.0273-3.6172-0.72266-1.9258-2.4141 0-4.5742 1.4453-2.168 1.4492-12.77 3.8594-15.18 3.6172-2.4062-0.24219-14.695 2.6562-14.695 2.6562s-0.24219-4.3359-0.24219-7.2305c0-2.8945-2.6484-5.5391-5.2969-8.4336-2.6484-2.8906-4.8164-7.9453-6.0195-10.84-1.2109-2.8906-7.2305-8.6758-11.324-12.047s-9.8789 2.168-13.008 4.5742c-3.1367 2.4023-3.8516 10.113-2.6562 15.656 1.2109 5.543 8.4336 9.1562 9.8828 11.316 1.4453 2.168 4.3281 8.1914 7.707 11.562 3.375 3.3711 11.082 5.2969 14.461 9.1562 3.3711 3.8516 9.8789 9.1562 8.1914 11.805-1.6914 2.6562-7.7109-1.4492-8.6797-3.375-0.96484-1.9336-13.242-10.359-15.656-13.492-2.4062-3.1367-19.027 6.5-24.574 13.25-0.24609-2.8945 0.48047-6.7461 7.9453-9.8789 7.4688-3.1367 10.848-5.0586 11.805-8.9141 0.95703-3.8594-8.4336-9.8828-11.562-13.008s-4.5742-13.25-4.5742-17.832c0-4.582-9.3984 5.5391-12.523 8.1914-3.1367 2.6484-7.2305 4.8164-12.047 6.7422-4.8164 1.9336-11.082 0.48047-13.973-0.96484-2.8945-1.4492-9.6367 1.9258-13.016 5.2969-3.3711 3.3711-10.602-2.6484-16.379-4.5742-5.7773-1.9258-13.973-1.2031-17.59 0.48047-3.6133 1.6914-29.152 25.301-32.043 30.117s-15.656 19.75-20.238 24.09c-4.5742 4.3398-12.527 3.8516-12.285-3.1289 0.24219-6.9883 3.6172-2.4141 11.082-4.8164 7.4648-2.4023 13.73-13.738 16.379-17.348 2.6484-3.6172 4.3359-7.4688 6.2656-12.047 1.9336-4.5742 5.7852-6.7422 8.6758-7.9531 2.8906-1.2031 5.7852-2.168 11.082-6.2617s4.8203-6.0273 4.8203-6.0273 5.7773 1.2031 8.1875 1.2031c2.4062 0 6.2656-3.6172 6.9883-10.121 0.72266-6.5078-4.0938-10.84-1.6875-14.211s4.3359-9.3984 5.0586-12.047c0.72266-2.6484 3.8516-1.6875 4.3359-0.24219 0.48047 1.4453-2.168 5.7852-2.6484 8.4336-0.48047 2.6484 0.48047 16.379 3.6172 20.473 3.1289 4.0977 9.8789 8.4336 15.176 9.6445 5.3047 1.2031 6.5078-4.582 11.324-4.8203 4.8164-0.24219 20.473-3.375 22.887-4.5742 2.4062-1.1992 9.3984-4.8164 14.934-10.359 5.543-5.5391-1.9336-13.25-5.0586-14.211-3.1289-0.96484 0.24219-6.7461 1.6914-3.8516 1.4453 2.8945 7.707 9.6367 16.863 8.9141 9.1562-0.72266 13.977-5.7773 18.793-6.7461 4.8086-0.96484 7.2227 3.375 14.453 4.0938 7.2227 0.72266 8.6758-0.72266 14.211-14.934 5.5391-14.211 15.664-19.273 18.312-22.645 1.0547-1.3477 1.6758-2.5312 1.875-3.4961-1.418-0.82812-2.5586-1.8633-3.4883-2.5039-1.6445 0.11328-4.2188 0.46094-7.0117 0.95703-0.38672 0.19141-0.78516 0.38672-1.1797 0.57812-1.8047 0.83594-3.6836 1.5586-5.7227 2.0117-1.625 0.37109-3.3477 0.53906-5.0586 0.46094-0.42578 0.18359-0.81641 0.37109-1.0938 0.54688-2.5195 1.625-6.793-1.0703-9.8945-3.8359-2.25-1.1016-4.3945-2.3398-6.4844-3.6016-2-1.2695-4.1094-2.3594-6.3047-3.3477-2.8242-0.52734-5.5938-0.6875-7.4258-0.30078-4.582 0.96484-4.582 3.375-6.9883 8.4336-2.4141 5.0586-7.4688-2.6484-8.4336-7.707-0.46484-2.418-2.3125-3.7188-4.418-4.3516-0.90234 0.125-1.7812 0.29688-2.6211 0.55469-1.9219 0.52734-3.6406 0.78906-5.2695 1.5273-1.6289 0.69531-3.1406 1.6797-4.5469 2.8125-1.3828 1.1211-2.7227 2.4883-4.2773 3.6328-1.5117 1.1602-3.125 2.1719-4.7383 3.1211-1.5664 0.94531-3.3164 1.8594-4.2617 3.0312-0.19531 0.24609-0.35938 0.60547-0.62891 1.0977l-0.72266 1.2383-1.5078 2.3867c-1.0117 1.5859-2.043 3.1484-3.1016 4.6875-0.11719 0.16797-0.23438 0.32422-0.35156 0.49219-2.5312 5.0625-5.125 10.496-6.9336 13.746-3.6133 6.5078-17.102 27.461-17.102 27.461s0.48047-5.0586 2.168-8.9141c1.6875-3.8516 2.6484-12.285 1.9258-17.344-0.72266-5.0625-10.121-7.9531-14.695-6.5078-1.875 0.59375-5.8203 1.5508-9.8164 2.4688-0.74609 0.33984-1.4883 0.69922-2.2344 1.0352-3.4453 1.5234-6.9102 2.9531-10.359 4.3555l-2.5586 1.0547-1.1641 0.50781-0.70703 0.33594-0.70703 0.29688c-0.66016 0.26953-1.2891 0.51562-1.9141 0.77344-1.2109 0.79688-2.457 1.6562-3.7852 2.6641-1.3164 1.0039-3.0117 2.0938-4.957 3.2656-0.56641 0.78906-1.1133 1.4492-1.7305 2.0703-3.0508 2.9727-6.3672 4.9883-9.7031 6.8828-3.4141 1.875-6.6758 3.3555-9.5859 5.293-1.457 0.95312-2.8008 1.9766-3.9258 3.1133-0.55859 0.57031-1.0703 1.1641-1.5469 1.8086-0.23438 0.32422-0.46484 0.66016-0.69531 1.0195l-0.27344 0.41406-0.10547 0.14062-0.24609 0.30078c-0.39062 0.45312-0.63672 0.63281-0.96484 0.87891-2.4648 1.5898-4.3242 1.6797-6.082 2.2188-0.56641 0.14062-1.0703 0.3125-1.5977 0.47656-3.0703 2.7539-6.0664 5.6562-9.1328 9.1914-0.042969 0.054688-0.09375 0.11719-0.14062 0.17188-1.1719 1.4297-2.043 2.6836-2.7031 4.2188-0.68359 1.6914-1.5195 3.4883-2.2852 5.1445l-4.6641 10.141c-1.4961 3.3867-3.0586 6.7656-4.3242 10.203-0.3125 0.85547-0.59766 1.7266-0.80469 2.582-0.24609 0.82422-0.14062 1.6953-0.4375 2.7656-0.44922 1.7539-1.6758 3.1992-3.2422 3.9883-0.67188 3.2656-1.9609 9.6445-2.1211 11.562-0.21875 2.625 4.1562 8.9727 7.875 10.719 3.7188 1.7539 8.9727 7.8789 12.035 9.4141 3.0625 1.5234 9.625 5.4727 18.816 6.3438 9.1914 0.875 11.594 3.2812 15.754 6.7812s9.4062 6.125 15.316 8.5273c5.9062 2.4023 17.281 1.7539 23.191-0.875 5.9062-2.625 6.3438-3.9375 9.625-8.9727s10.5-3.7188 13.125-5.4727 4.5938-3.5039 4.5938-3.5039l-0.23047-0.125c1.0586-2.2969 2.75-4.4961 5.1016-5.8984zm-20.918-59.152c-3.5391 4.5977-6.7266 12.027 12.035 28.32-10.617-1.7695-20.883-11.68-20.535-15.934 0.34766-4.25 3.543-10.266 8.5-12.387zm66.355-64.086c4.8086 4.5977 23.844 6.5625 27.57 2.625 3.7188-3.9414 5.4648-13.125 5.4648-13.125 3.9414 1.9727 3.0703 9.1914 2.8516 14.656-0.21875 5.4648-4.8164 5.6914-10.281 5.6914-5.4727 0-10.289-2.625-12.035-1.5273-1.7461 1.0938-5.2539 3.0625-6.3398 1.5273-1.0977-1.5273-1.7539-3.2812-7.0039-2.8438-5.2539 0.4375-7-3.9414-7-6.5625-0.003906-2.625 1.9609-5.0352 6.7734-0.44141zm-55.363 127.27c-1.1016 2.75-8.2539 4.4023-8.2539 4.4023 0-2.5703 3.8516-4.4023 4.9492-6.418 1.1016-2.0234 6.0547-2.207 9.9062-5.5 3.8516-3.3047 8.2539-4.4062 11.742-2.5703-8.2578 3.3047-17.246 7.3359-18.344 10.086zm33.605-145.1c1.6055-0.92578 3.1523-1.875 4.6094-2.9688 1.3672-0.96484 2.5586-2.1797 3.9102-3.3438-3.1211 2.0625-6.5195 4.5312-8.9727 6.5703 0.15234-0.078125 0.30469-0.16016 0.45313-0.25781zm133.41 13.133c5.1641-3.1016 11.363-3.6172 12.656-6.9766 1.0742-2.793 1.4102-7.0117 0.3125-10.434l-0.77344-0.85156-6.6094-7.1406-6.6367-7.125c-2.0703-2.2305-3.9258-4.5625-5.7227-6.9766-0.51562 0.5-1.0469 0.96484-1.5781 1.418 0.55859 3.6289 7.8438 15.523 8.0547 21.133-3.0625-2.4062-6.125-9.4062-8.3086-14.223-1.0586-2.3359-2.3242-3.3086-3.543-3.4219-0.25781 0.26953-0.54297 0.51562-0.77734 0.79688-0.58203 0.67188-1.1016 1.3789-1.5195 2.1172-0.45313 0.75-0.67188 1.4492-1.0625 2.4297-0.37891 0.93359-0.90625 1.9023-1.6797 2.7148-0.77344 0.81641-1.5078 1.3477-2.0664 1.9492-1.1602 1.1719-2.0703 2.6602-2.9102 4.2344-0.83984 1.5508-1.5078 3.2305-2.5703 5.0273-1.0469 1.707-2.2578 3.4492-4.2461 4.7656-0.078125 0.050781-0.16797 0.10156-0.25391 0.14453-3.0703 7.0859-7.6875 5.1055-10.656 7.0156-3.0703 1.9727-8.3164 7.6562-10.289 12.027-1.9727 4.375-2.1914 9.625-2.625 12.254-0.4375 2.625 3.0703 7.6562 5.6953 9.1914 2.625 1.5352 7.4375 3.0625 11.809-2.625 4.375-5.6914 4.5938-1.7539 4.375 0.21875-0.21875 1.9727-8.0938 7.6562-9.8438 9.8438-1.7539 2.1914-7.875-1.5352-10.289-4.1602-2.4062-2.6211-5.9062-3.7188-10.281-1.0938s-10.062 2.1914-16.191 3.7188c-6.125 1.5273-11.375 0.22266-11.375 0.22266s3.5 5.9062 7.6562 9.1914c4.1562 3.2812 17.062 16.406 21.875 17.938 4.8086 1.5273 12.254 1.0938 27.57-1.7539 15.309-2.8516 18.594-4.1562 23.844 0-6.7812-0.87891-21-0.21875-25.375 3.0625 4.1562-1.5273 5.9062 5.0273 10.5 4.8086s7.5078 2.8945 10.574 4.5586c3.0625 1.6758 3.6172 6.6797 4.7305 9.1914 0.27344 0.60938 0.87891 0.83594 1.6523 0.78906 0.33594-0.23438 0.69531-0.51562 1.0625-0.82422 0.94531-0.79688 1.9766-1.6758 3.125-2.4414 0.77344-0.53906 1.6797-1.0195 2.582-1.4453 0.085937-0.17969 0.15234-0.35938 0.20312-0.53906 0.28516-1.0469 1.2891-1.0078 2.5742-0.48828 1.0039-0.21875 2.0703-0.30859 3.0781-0.14453 3.2656 0.46875 5.6562 2.25 7.6094 3.3086 0.039062 0.023438 0.078125 0.035156 0.11719 0.054688 1.7812-1.9648 3.7695-3.7539 5.668-5.543 0.76562-0.73438 1.5195-1.4609 2.2188-2.1953 0.77734-1.5273 1.1367-2.9297 1.1328-4.1172-0.63281-1.2773-1.4062-2.4883-2.2969-3.3867-0.99219-0.30078-2.2852-0.27344-3.8867 0.16406l-8.5273 2.3359-4.6523-0.77734c0.95703-3.9883 1.0312-5.9062 0.94141-7.3984-0.10547-0.26172-0.20703-0.52734-0.3125-0.79688-0.63281-1.8633-0.92578-3.7539-0.82812-5.6602 0.089843-1.8867 0.49219-3.7188 1.0703-5.4219 0.28516-0.85156 0.64453-1.6641 1.0039-2.4375 0.13281-0.30859 0.30078-0.65625 0.44141-0.95703 0.035157-0.91797 0.10547-1.9922 0.24219-3.2422-0.015625-0.67578-0.035156-1.3672 0.011719-2.082 0.09375-1.5625 0.46484-3.1797 1.0469-4.6719 0.37109-1.8477 0.80469-3.6797 1.3008-5.3125 1.8086-5.9414 5.6836-14.723 6.1992-16.535 0.39062-1.3906 0.33594-7.0156-0.41406-10.152l-0.94531-1.5898c-0.15234-0.22266-0.30078-0.51953-0.42969-0.83984-1.5117-1.3594-3.6445-3.2422-8.2812 0.69922-5.1641 4.3906-12.137 5.4258-15.754 8.5234 3.0859-5.1602 5.4102-6.9688 10.578-10.066zm-10.336 18.855c2.582-2.3281 14.207-5.9414 17.832-9.5586-0.77734 4.3906-4.6523 5.9414-10.852 10.074-6.1992 4.1328-9.043 22.734-20.418 25.832 11.883-8.2695 12.926-21.184 8.2695-24.031-4.6484-2.8398-18.855-8.7812-21.957-9.5586-3.1016-0.77344-0.77734-3.3594 1.8086-3.3594 2.582 0 2.582-0.51562 5.6797-7.4922-0.25391 3.3594-2.3203 6.9766 2.3281 9.3008 4.6484 2.332 14.727 11.117 17.309 8.793zm76.277 80.203c-2.4922 1.6641-16.625 4.1562-19.738 3.9492-3.1133-0.20703-15.992 0.82813-20.156 4.3633 6.0273-5.8203 12.68-4.5625 22.855-6.4414 10.18-1.8711 10.18-3.7422 12.051-7.6875-3.7422 2.082-4.1562 4.5703-11.223 4.7812-7.0664 0.21094-20.57-1.8711-28.043 3.1211 8.5195-8.3086 22.227-6.2344 26.387-6.6523 3.7305-0.37109 5.9414-1.0977 6.1992-3.8086-1.3555-0.16797-2.7227-0.32422-4.082-0.5-1.2812-0.15234-2.625-0.33594-3.9297-0.49219-0.45312 0.12891-0.94531 0.27344-1.5195 0.4375-5.8203 1.6641-12.887-1.6641-18.703 1.457 3.8789-2.5547 8.8242-3.0859 12.594-3.0352l-3.5-0.77734c-2.418-0.50781-4.832-0.88672-7.2031-1.0547-1.1797-0.09375-2.3633-0.11719-3.4883-0.0625-0.62891 0.039062-1.2266 0.09375-1.8359 0.13281 0.19531 1.0117 0.28125 1.9922-0.09375 2.2461-0.83594 0.55859-5.5664 1.668-7.7969-1.1094-2.2227-2.7812-5.0117-1.1133-5.0117 1.668 0 2.7773 6.125 6.1211 7.2344 7.5078 1.1133 1.3906 5.0117 5.8477 5.8398 7.2344 0.54688 0.90234 6.1133 7.3125 9.207 12.77 1.9883 0.19531 3.9414 0.71094 5.8984 1.8984-1.5234 0-3.207-0.023437-4.9336-0.042968 1.0195 2.1836 1.457 4.0664 0.6875 5.1367-0.42578-0.76562-1.7148-2.7617-3.3672-5.168-5.3633-0.066407-10.387-0.066407-11.09 0.49219-1.043 0.82812-3.7422 4.1562-3.7422 5.3984 0 1.25 7.4805 2.0781 11.633 0.41406 4.1562-1.6562 10.602 0.41406 20.574-1.2422-4.7812 3.1211-14.965 2.2773-17.246 2.0703-2.2852-0.20703-8.9375 1.668-11.84 3.1211-2.9102 1.457-11.637 4.7812-16 8.1016-4.3633 3.3203-13.5 8.5195-15.379 9.5547-1.8633 1.043-5.8125 4.3633-9.3477 5.2031-3.5352 0.82812-12.258 1.25-18.078 2.2773-5.8203 1.043-8.5195-0.20703-11.43-2.9102 4.9883-3.3281 7.0664-2.6953 9.9727-3.1133 2.9062-0.42188 8.5195-3.1211 12.047-4.1562s9.3516-2.6992 13.508-5.6094c4.1484-2.9102 6.0273-3.9492 9.3477-7.8945 3.3281-3.9492 11.016-8.5195 14.547-10.594 3.5352-2.0781 16.621-7.6875 17.863-5.4023-7.4766 0-23.27 9.7656-25.555 12.047-2.2773 2.2852-9.9688 10.387-12.051 12.258-2.0703 1.8711-12.047 5.4023-14.336 6.2344-2.2891 0.82812-10.176 2.2852-15.172 6.2266 0 0 8.5234 0.20703 12.473-0.41406 3.9492-0.62109 8.1016-0.41406 11.637-2.4883 3.5352-2.0781 7.0664-5.8203 8.5195-7.4805 1.457-1.668 6.2383-5.6094 8.3086-6.6523 2.0781-1.043 7.2734-2.6992 10.602-3.9492s4.3633-2.0781 5.4023-3.9492c-1.25 0-3.5352 0.41406-3.5352-1.8711 0-2.2773 5.6055-7.0625 11.016-7.2695 2.082-0.085937 4.082-0.28125 6.0156-0.33594-3.6289-5.1758-8.2305-11.211-9.7734-11.555-2.5039-0.55859-13.91 8.0625-15.305 9.7383-0.76172 0.91406-1.5195 0.050781-2.0508-1.2656-4.1875 2.3125-10.031 6.1367-14 9.0234-4.5703 3.3281-13.094 6.0195-18.496 7.2695-5.3984 1.25-19.32 9.1445-21.605 12.68 1.043-5.8203 10.801-8.9375 17.656-12.258 6.8672-3.3281 14.547-4.3633 20.574-8.5195 5.3555-3.6914 10.836-6.5 15.785-8.4102-0.38672-1.0469-0.64453-2.3086-0.64453-3.2422 0-2.2227 5.2852-10.02 5.0117-11.969 0.14453-9.4453-5.2305-11.742-10.32-11.84-0.14062 0.085937-0.27344 0.16797-0.42969 0.24609-0.59375 0.38672-2.0391 0.59375-1.9375 0.59375-0.82422 0.3125-1.9102 1.0977-2.9062 1.8086-1.0195 0.73438-2.0547 1.5078-3.2031 2.2109-0.58203 0.33984-1.1758 0.69531-1.8945 0.95703-0.35156 0.12891-0.75 0.24219-1.2109 0.26172-0.54688 0.015626-0.78906-0.0625-1.0352-0.0625-1.1523-0.035156-2.418 0.054688-3.6445 0.20703-0.95312 0.125-1.9023 0.28125-2.8555 0.42969-1.4609 3.0586-13.055 6.6094-16.273 7.8164-3.3281 1.25-8.7305 4.1562-20.988 11.844-12.254 7.6875-12.879 22.238-12.879 24.73 0 0.66797 0.25781 1.6133 0.62109 2.6719 0.41016-4.7227 6.6484-15.27 12.879-20.332 6.6523-5.4023 13.094-5.4023 16.832-7.0664 3.7422-1.6641 9.1406-4.7812 20.777-8.9375-7.8945 3.3281-16.621 10.809-22.23 11.43-5.6094 0.62109-9.1445 3.5352-13.922 7.8945-4.543 4.1445-12.824 14.469-14.168 17.445 1.0469 2.8242 2.7422 6.1992 2.7422 7.0781 0 1.25 3.1211 3.3203 4.5703 3.5273 2.0703-1.6641 3.7422-2.9102 5.1914-6.4414 1.457-3.5352 4.7812-12.473 13.301-16.832 8.5195-4.3555 13.293-2.9102 16.414-7.0664 3.1211-4.1484 10.809-6.0195 16-9.9688s9.7617-6.2344 14.125-6.0273c-12.879 5.1953-16.828 9.7656-21.816 12.473-4.9883 2.7031-6.0195 4.3633-10.383 6.8594-4.3633 2.4883-5.8203 1.8711-9.1445 4.3555-3.3281 2.4922-11.43 7.2734-12.258 8.5195-0.82812 1.2422-4.5625 5.4023-3.5352 9.3477 1.043 3.9492 2.9102 3.9492 3.3281 2.7031 0.41406-1.25 9.1445-5.8203 11.223-7.2734 2.0781-1.457 10.801-5.8203 13.914-6.4414s7.8945-1.6641 11.223-4.5703 15.586-8.9336 19.945-11.84c-9.9688 7.2695-16.828 13.707-20.57 15.992-3.7422 2.2852-8.9375 3.5352-14.543 4.7812-5.6094 1.25-9.3516 3.9414-12.258 6.2344-2.9102 2.2852-5.4023 4.3633-7.8945 5.8203-2.4922 1.457-4.1484 2.0703-6.0273 2.0703-0.92578 0-2.3008-0.30078-3.4609-0.60938 4.3633 6.3789 18.059 19.578 41.008 13.215-2.9688 3.4648-24.5 9.1016-44.906-10.152 0.24609 0.81641 0.70703 1.6367 0.70703 2.1289 0 0.58203-0.59375 1.082-1.4492 1.0195 6.9766 7.2344 23.973 17.832 45.141 15.797-14.734 2.375-34.105-1.2812-50.344-17.129-0.17969 0.37891-0.375 0.81641-0.60937 1.3477-0.30859 0.6875-0.58984 1.1328-0.85156 1.4062 3.5156 5.6992 11.363 11.73 28.488 18.453-10.793-1.6445-22.98-9.2344-31.41-18.379 3.7734 8.1094 17.078 17.656 29.25 24.121-17.23-7.1719-26.789-16.441-32.223-24.102-0.39844 0.22266-0.78516 0.46875-1.1406 0.79688-0.20312 0.18359-0.33203 0.42578-0.41406 0.6875 6.6914 12.609 21.09 21.789 33.398 28.734-17.801-7.5156-27.453-16.52-32.594-22.863-0.54297-0.48047-1.1602-1.0117-1.8359-1.5664-2.2891-1.8711-3.5352-2.6992-5.4102 0.41406-1.8711 3.1211-1.6562 7.8906-0.20703 10.18 1.457 2.2852 3.1211 2.9062 5.8203 1.2422 2.6992-1.6562 5.8203 4.7812 6.8594 6.8594 1.043 2.0781 5.8203 4.9883 7.2734 4.9883 1.4492 0 25.766 9.1445 25.766 9.1445s14.66 0.66016 21.441-0.21094c6.7812-0.87891 7.4375-0.21875 11.594-1.9727 4.1562-1.7539 9.8516-4.1562 14.875-6.5625 5.0273-2.4141 10.07-3.9414 12.906-7.4375 2.8516-3.5 7.0039-4.1562 11.598-8.0938 4.5938-3.9414 7.6562-7.2227 12.906-14.66 5.2539-7.4414 13.562-15.973 13.562-19.473s1.7539-3.7188 4.5938-7.875c2.8516-4.1562 7.4414-6.7891 7.0039-15.316-0.26172-5.0742-1.2148-13.457-1.9492-19.438-0.10547 0.09375-0.17188 0.1875-0.28906 0.26562zm-103.47 20.367c-3.3203 1.457-12.047 3.3281-15.785 6.4336-3.7422 3.1211-13.301 18.289-14.336 22.652-1.457-2.9102 1.25-10.809 7.2734-18.703 6.0195-7.8945 11.633-8.7305 18.078-10.801 6.4414-2.0781 11.016-7.0664 22.438-12.258-2.9141 1.6602-14.344 11.219-17.668 12.676zm22.234-23.895c-7.0664 3.332-15.793 7.8945-20.574 8.1016-4.7773 0.20703 13.715-7.4766 20.574-9.7617 6.8555-2.2852 16.621-3.7461 18.699-2.2852 0 0.003906-11.633 0.61719-18.699 3.9453zm-17.262 65.02c-3.4844 1.1641-13.832 0.44141-16.715-3.0195-2.3203-2.7812 6.2734-0.23047 10.914-0.23047s7.1953 2.3203 10.68 0c3.4766-2.3242 13.691-2.5547 16.246-5.3438 2.5547-2.7812 11.609-3.7109 26.473-1.625 0 0-15.094 0.46484-17.875 1.1602-2.7812 0.69531-10.68 3.4844-12.531 3.9492-1.8633 0.46875-13.707 3.9531-17.191 5.1094zm81.461-13.488c-2.4883 1.8711-9.3477 0.20312-10.176 1.6641-0.82812 1.457-0.62109 5.1914-0.62109 5.1914s-4.9883-4.3555-6.4414-3.3203c-0.93359 0.66797-2.7266 0.99609-4.8828 1.5781 5.2852 1.6367 12.078 10.785 8.457 13.867 0.33594-7.8359-7.8398-11.906-10.82-13.125-0.48828 0.17188-0.98438 0.36328-1.4766 0.58984-2.2383 0.99219-5.0586 1.6172-7.1523 2.3594 7.7617 1.25 16.957 8.4062 13.977 16.605-1.0938-10.254-10.801-15.586-18.047-13.535l0.21094-0.38672c-1.0195 0.54688-2.5586 0.96875-4.0938 1.3828 6.3008 0.24609 17.137 2.1562 16.191 17.188-0.53125-15.25-12.621-16.09-20.707-14.75-0.21094 0.42188-0.33984 0.81641-0.49219 1.2109 5.0859 0.94531 19.02 4.9688 12.59 19.957 2.5586-12.414-8.4219-16.684-17.461-16.832-0.35938 0.12891-0.6875 0.25391-0.99609 0.35156 6.8828 4.8789 11.777 13.391 6.5703 21.262 1.2695-5.375-1.7422-14.645-7.2539-19.5 1.6133 6.0195-2.8008 17.199-12.57 17.594 9.6445-2.3203 12.191-15.18 9.9062-19.477-0.54297-0.28516-1.0977-0.53125-1.6758-0.72656-0.24219 0.10547-0.5 0.21875-0.78516 0.37891-2.4883 1.457-5.8125 1.0469-8.7266 3.5352-2.9102 2.4922-6.2344 0.62109-6.2344 0.62109s4.3633-3.7422 6.6523-4.5703 6.4336-4.1562 8.7266-3.7422c2.2891 0.41406 5.4102 2.0781 7.6875 0 2.2852-2.0703 6.2344-4.3555 8.7305-6.2266 2.4922-1.875 10.18-3.1211 12.254-4.7812 2.0781-1.6641 6.2383-2.0781 9.5586-2.0781 3.3281 0 4.5703-2.0781 5.1953-4.5703 0.62891-2.4922 7.6836 2.0781 12.047 0.20703s9.5586-5.4023 9.5586-5.4023c-1.6758 3.3242-5.2031 5.6094-7.6992 7.4805zm-7.0625-9.3516c-10.801 1.8711-14.957 1.043-15.992 0-1.0352-1.043-3.3203-0.20703-3.3203-0.20703-1.875-10.176 28.875-0.20703 32.613-14.75 0.62109 11.219-22.438 9.1406-28.254 13.086 7.8906 2.0781 26.797 2.2891 31.371-9.7617 3.3203 5.1914-5.6172 9.7617-16.418 11.633zm65.066-115.51c-5.0352-3.0625-1.9727-3.7188-3.0703-7.875-1.0938-4.1602-0.86719-14-3.0625-17.281-2.1914-3.2812-9.4062-11.375-11.594-16.625-2.1914-5.2539-15.754-25.594-15.754-25.594s5.4727-8.7539-6.7812-22.316c-10.289-11.387-28.23-29.348-33.738-34.844 0.92969 2.0273 1.832 4.0703 2.7031 6.1328 0.68359 1.5898 1.293 3.2461 1.7695 5 0.44141 1.5273 0.59766 3.2969 0.42969 4.9844 0.60547 4.2969 0.011718 8.6367-1.3594 11.512-1.082 2.2734-3.8242 3.793-6.418 4.9883-0.72656 1.0547-1.4492 2.1094-2.2227 3.1484-0.53125 0.70703-1.0742 1.4102-1.6562 2.1172-0.35156 0.41016-0.65625 0.78516-1.0352 1.1797 1.4609 3.4375 4.7266 8.4766 7.6094 11.973 4.1562 5.0273 10.938 5.0273 20.352 9.1914-2.1953 0.4375-9.1953-0.65625-14.223-1.3086-4.5547-0.59375-11.781-10.316-16.684-17.668l-0.70703 0.39063-2.1992 1.2695c-2.918 1.707-5.8008 3.5156-8.5859 5.3594-1.418 0.94531-2.6992 1.7969-3.832 2.8164-1.1758 1.043-2.3242 2.2227-3.4648 3.4258-1.8594 1.9492-3.6562 4.0391-5.3945 6.1367 1.4453 2.043 2.9414 4.0703 4.5586 5.9297 1.3555 1.5469 2.6602 3.1211 3.9531 4.6992 2.6758 2.5273 5.0352 5.3203 6.8867 8.5195 0.51562 0.66016 1.043 1.3086 1.5469 1.9805l1.4844 1.9883 0.78906 1.1367c0.066407 0.078125 0.35156 0.62891 0.42969 0.94141 0.074219 0.3125 0.14453 0.64844 0.14453 0.91406 0.035156 1.1328-0.10547 2.0898-0.30078 2.9844 2.6758 6.1211 5.2461 3.6797 7.0391 2.7812 2.0664-1.0312 11.625-3.3555 11.883-9.5586 0.25781-6.2031 3.875-10.332 6.1992-10.332 2.3242 0 7.2344 1.293 8.2656-5.6836 1.293 4.3945-4.9062 6.457-2.582 9.5586 2.3242 3.1016 8.0078 17.309 13.691 21.699 5.6836 4.3906 7.4922 7.4922 7.4922 7.4922-6.7148-6.457-13.949-7.2344-15.758-2.3242-1.8047 4.9062-4.1289 7.4883-6.457 7.4883 8.7812-9.8164 7.2344-12.656 6.9727-15.242-0.25391-2.582-6.9727-16.793-8.2656-18.082-1.293-1.2891-3.1016-2.0664-3.875 2.582-0.77344 4.6484-1.5469 11.625-4.1289 13.43-2.5859 1.8086-13.176 2.8438-15.758 6.7188-2.2852 3.4258-5.168 0.8125-4.375 7.4766 0.32031 0.68359 0.62109 1.3789 0.87891 2.1016 0.28516 0.80078 0.52734 1.6367 0.64453 2.5352 0.054688 0.45312 0.089844 0.90234 0.027344 1.4336-0.066406 0.46875-0.15234 0.82812-0.23438 1.25-0.050781 0.26172-0.11719 0.51562-0.17188 0.77734 0.27344 5.3359-1.1797 8.043-2.6445 10.207-0.11328 0.33203-0.19531 0.66016-0.32422 0.99219-0.28516 0.81641-0.71875 1.6445-1.0547 2.3359-1.2773 2.5859-2.3789 5.1758-3.3086 7.8281-0.015625 0.72656 0.027343 1.4336 0.21875 2.0664 1.0352 3.3594 1.8086 8.5195 0.77734 11.363s-3.1016 5.4258-2.0664 8.5234c0.5 1.4844 2.4258 3.3164 4.7656 4.8828l1.1406-0.37109c0.33594-0.09375 0.94531-0.29688 1.5625-0.35156 1.2305-0.13281 2.5273 0.16406 3.5 0.72656 0.99609 0.55859 1.7422 1.2812 2.3672 2.0156 0.39062 0.46875 0.72656 0.95313 1.0352 1.4453 3.8789-0.0625 7.7227-1.8086 8.6172-4.7305 1.0352-3.3672 5.9453-6.9766 9.5664-8.5234 3.6172-1.5508 10.074 2.582 14.98 0 4.9102-2.5859 7.75-2.3242 7.75-5.6914 0-3.3594-3.6172-14.465 5.168-22.473-3.8711 8.5234-1.8047 20.66 0 23.504 1.8086 2.8438 9.582-2.3086 9.8242-5.4219 0.25391-6.1992 1.2891-10.074 1.2891-10.074s2.582 5.4258 4.9062 10.848c2.3242 5.4258 4.1328 11.105 2.5859 14.211-1.5508 3.1016-1.8086 5.9414-0.51953 6.7148 1.2891 0.77344 5.9453 2.8398 6.457 1.0352 0.51953-1.8086 3.3594-3.875 2.3242-7.2344-1.0352-3.3594-1.5469-10.59-1.0352-13.949 1.2891 4.6484 1.8086 10.594 2.8438 12.402 1.0352 1.8086 3.1016 3.3594 3.1016 3.3594s-3.875 3.1016-4.1328 5.9414c-0.25781 2.8438-0.77734 7.2344-0.77734 7.2344s-4.1328-1.2891-5.9453-3.1016c-1.8047-1.8047-3.0977-6.457-6.4531-2.3242-3.3555 4.1328-9.3008 19.375-18.855 23.766-6.9766-3.6172-16.793-9.0391-22.742-5.9453-4.1328-4.9062 10.852-4.3867 15.242-1.5469 4.3906 2.8438 6.7188 4.9102 10.336 1.5469 3.6172-3.3594 10.594-13.43 12.66-16.27 2.0664-2.8438 3.6172-10.078 4.1328-14.727 0.51562-4.6523-3.6172-14.98-3.6172-14.98 0.77734 8.2617-4.3906 9.5547-10.594 11.363-4.6484 0.51953-5.9414 1.0352-8.0078 3.3594-2.0664 2.3281-10.594 1.293-14.984 2.8438-4.3906 1.5508-10.074-1.0352-16.273 9.8164 0.25781 5.168 4.9062 7.4922-0.77734 12.918 2.3281-6.1953-2.0664-8.2656-2.0664-8.2656s-4.75 9.4531-13.73 10.523c-0.27344 0.19531-0.54297 0.40234-0.8125 0.60547 0.074218 0.035156 0.17187 0.078125 0.23047 0.10156 0.42969 0.12891 1.2031 0.32422 1.6641 0.42969 0.53125 0.10156 0.37891 0.09375 1.1094 0.035156l1.9414-0.17188c1.3008-0.09375 2.6211-0.15234 3.8789-0.18359 1.3984-0.039063 2.7539 0.027343 4.0898 0.16406 2.6719 0.30078 5.2344 0.86719 7.7383 1.5273 1.25 0.33594 2.4883 0.67578 3.7031 1.0625l1.7969 0.55859c0.30078 0.10156 0.64453 0.19531 0.94141 0.28125 0.25781 0.015624 0.50781 0.039062 0.77734 0.050781 4.3633 0.20703 5.1953-0.41406 8.5195 1.6641 3.3281 2.0703 4.7812-0.62109 7.6875 0.41406 2.3203 0.82422 5.5273 2.6992 6.8555 4.168 1.9766 0.42969 6.6484 1.293 12.543 1.293 7.875 0 10.938-5.0352 14.438-8.3164s12.254-10.062 18.16-25.375c5.9336-15.32 0.45703-34.348-4.5664-37.41zm-66.641 49.559s9.0039 1.2617 9.8438 1.0547 8.5781-2.5156 12.348-4.8164c3.7734-2.3008 3.3555-2.7227 6.4922-5.0234 3.1484-2.3008 0.21094-7.1172 0.21094-7.7461 0 0 3.7695 0.42188 3.7695 3.3477 0 2.9297-3.1484 9.2188-3.1484 9.2188l6.2812 3.5625s-6.6992 0.41406-8.5859 0.41406c-1.8828 0-4.3906 1.6797-10.258 2.0938-5.8477 0.41016-16.953-2.1055-16.953-2.1055zm23.453-137.35c1.0469 4.1875 5.8633 18.219 5.8633 18.844 0 0.62891 6.2812 7.9531 6.2812 8.5859 0 0.63281 7.957 14.027 7.75 16.75-0.20703 2.7227-3.7734 5.6562-5.0234 2.9297-1.2617-2.7227-5.8633-17.797-10.051-25.336-4.1875-7.5391-8.3711-26.176-13.82-35.594-0.003906 0 7.9531 9.6367 9 13.82zm-20.727 14.449c0 3.3477-5.0234 2.3008-4.1875-1.6758 0.83594-3.9766 11.727-4.6016 13.188-2.0938 0 0-9 0.42187-9 3.7695zm44.066 72.84c-2.8398-2.582-20.664-3.6172-27.125-0.25781-6.457 3.3555-21.184 3.3594-30.996 14.207 3.8711-5.6836 4.6406-10.852 3.0977-18.602 0 0 9.8164 6.1992 16.273 5.6836 6.457-0.51562 15.242-5.9414 22.223-11.109-0.51562 1.0352-3.6172 5.9414-3.6172 5.9414s6.7188 0.51953 6.7188-2.582c0-3.1016 2.582-16.793 2.0625-20.668-0.51562-3.875-14.723-22.215-16.789-25.059s-1.2891-7.2344-1.0352-18.34c0.25781-11.109-4.1289-22.215-10.852-32.297 0 0 10.852 15.5 12.402 21.699 1.5469 6.1992 0.51562 20.926 0.77344 23.508 0.25781 2.582 4.1328 7.4883 7.75 13.176 3.6172 5.6836 11.625 15.758 11.625 15.758s7.75 0 14.727 1.293c-13.43 2.8398-16.273 8.2656-16.793 10.074-0.51562 1.8086-0.51562 5.6836 0 8.2656 0.51953 2.582 6.7188 4.1328 8.5234 5.1641 1.8086 1.0352 6.7148 4.3945 8.2695 6.1992 1.5469 1.8086 5.9414 9.3008 7.4922 11.883 1.5469 2.582 6.1953 5.9453 6.1953 14.98-4.1289-9.8008-18.082-26.332-20.926-28.918z"/>
  <use x="70" y="644" xlink:href="#f"/>
  <use x="90.546875" y="644" xlink:href="#d"/>
  <use x="104.355469" y="644" xlink:href="#a"/>
  <use x="123.347656" y="644" xlink:href="#k"/>
  <use x="142.242188" y="644" xlink:href="#c"/>
  <use x="155.625" y="644" xlink:href="#a"/>
  <use x="174.617188" y="644" xlink:href="#j"/>
  <use x="204.40625" y="644" xlink:href="#i"/>
  <use x="224.449219" y="644" xlink:href="#h"/>
  <use x="252.449219" y="644" xlink:href="#f"/>
  <use x="273" y="644" xlink:href="#g"/>
  <use x="282.597656" y="644" xlink:href="#b"/>
  <use x="301.835938" y="644" xlink:href="#e"/>
  <use x="318.429688" y="644" xlink:href="#w"/>
  <use x="337.054688" y="644" xlink:href="#v"/>
  <use x="362.921875" y="644" xlink:href="#u"/>
  <use x="372.515625" y="644" xlink:href="#t"/>
  <use x="389.183594" y="644" xlink:href="#a"/>
  <use x="70" y="672" xlink:href="#s"/>
  <use x="82.183594" y="672" xlink:href="#d"/>
  <use x="95.992188" y="672" xlink:href="#b"/>
  <use x="115.226562" y="672" xlink:href="#r"/>
  <use x="154.152344" y="672" xlink:href="#c"/>
  <use x="167.535156" y="672" xlink:href="#q"/>
  <use x="187.46875" y="672" xlink:href="#a"/>
  <use x="216.207031" y="672" xlink:href="#p"/>
  <use x="239.640625" y="672" xlink:href="#b"/>
  <use x="258.878906" y="672" xlink:href="#o"/>
  <use x="278.8125" y="672" xlink:href="#n"/>
  <use x="308.492188" y="672" xlink:href="#m"/>
  <use x="329.015625" y="672" xlink:href="#d"/>
  <use x="342.820312" y="672" xlink:href="#b"/>
  <use x="362.058594" y="672" xlink:href="#l"/>
  <use x="371.65625" y="672" xlink:href="#a"/>
  <use x="390.648438" y="672" xlink:href="#e"/>
  <use x="407.242188" y="672" xlink:href="#c"/>
 </g>
</svg>
